<svg xmlns="http://www.w3.org/2000/svg" xmlns:xlink="http://www.w3.org/1999/xlink" xmlns:lucid="lucid" width="1845.5" height="691"><g transform="translate(101 400)" lucid:page-tab-id="0_0"><path d="M-500-500h2500V500H-500z" fill="#fff"/><path d="M696.26-384a6 6 0 0 1 6-6H774a6 6 0 0 1 6 6v24.9a6 6 0 0 1-6 6h-71.74a6 6 0 0 1-6-6z" fill="none"/><use xlink:href="#a" transform="matrix(1,0,0,1,701.25953125,-385) translate(0 21.58376736111111)"/><path d="M200-260c0 22.1-17.9 40-40 40s-40-17.9-40-40 17.9-40 40-40 40 17.9 40 40z" stroke="#000" stroke-width="2" fill="#fff"/><use xlink:href="#b" transform="matrix(1,0,0,1,125,-295) translate(30.48068576388889 43.40277777777778)"/><path d="M160-218v52a6 6 0 0 1-6 6H79.5" stroke="#5e5e5e" stroke-width="2" fill="none"/><path d="M160-219l.97-.03v1.06h-1.94v-1.1z" stroke="#5e5e5e" stroke-width=".05" fill="#5e5e5e"/><path d="M64.24-160l14.26-4.63v9.26z" stroke="#5e5e5e" stroke-width="2" fill="#5e5e5e"/><path d="M60-160c0 22.1-17.9 40-40 40s-40-17.9-40-40 17.9-40 40-40 40 17.9 40 40z" stroke="#000" stroke-width="2" fill="#fff"/><use xlink:href="#c" transform="matrix(1,0,0,1,-15,-195) translate(21.490885416666668 43.40277777777778)"/><path d="M20-118v42a6 6 0 0 1-6 6h-68a6 6 0 0 0-6 6v24.5" stroke="#5e5e5e" stroke-width="2" fill="none"/><path d="M20-119l.98-.03v1.06h-1.96v-1.1z" stroke="#5e5e5e" stroke-width=".05" fill="#5e5e5e"/><path d="M-60-24.24l-4.64-14.26h9.27z" stroke="#5e5e5e" stroke-width="2" fill="#5e5e5e"/><path d="M-20 20c0 22.1-17.9 40-40 40s-40-17.9-40-40 17.9-40 40-40 40 17.9 40 40z" stroke="#000" stroke-width="2" fill="#fff"/><use xlink:href="#d" transform="matrix(1,0,0,1,-95,-15) translate(7.981770833333336 43.40277777777778)"/><path d="M38.28-122.33v44.16a6 6 0 0 0 6 6H94a6 6 0 0 1 6 6v26.67" stroke="#5e5e5e" stroke-width="2" fill="none"/><path d="M39.26-122.3H37.3v-.55l.36-.14 1.6-.88z" stroke="#5e5e5e" stroke-width=".05" fill="#5e5e5e"/><path d="M100-24.24L95.36-38.5h9.28z" stroke="#5e5e5e" stroke-width="2" fill="#5e5e5e"/><path d="M140 20c0 22.1-17.9 40-40 40S60 42.1 60 20s17.9-40 40-40 40 17.9 40 40z" stroke="#000" stroke-width="2" fill="#fff"/><use xlink:href="#e" transform="matrix(1,0,0,1,65,-15) translate(28.223741319444443 43.40277777777778)"/><path d="M168.84-219v53a6 6 0 0 0 6 6h85.66" stroke="#5e5e5e" stroke-width="2" fill="none"/><path d="M169.82-218.97h-1.95v-.8h.15l1.8-.5z" stroke="#5e5e5e" stroke-width=".05" fill="#5e5e5e"/><path d="M275.76-160l-14.26 4.63v-9.26z" stroke="#5e5e5e" stroke-width="2" fill="#5e5e5e"/><path d="M360-160c0 22.1-17.9 40-40 40s-40-17.9-40-40 17.9-40 40-40 40 17.9 40 40z" stroke="#000" stroke-width="2" fill="#fff"/><use xlink:href="#f" transform="matrix(1,0,0,1,285,-195) translate(16.461588541666668 43.40277777777778)"/><path d="M280 20c0 22.1-17.9 40-40 40s-40-17.9-40-40 17.9-40 40-40 40 17.9 40 40z" stroke="#000" stroke-width="2" fill="#fff"/><use xlink:href="#g" transform="matrix(1,0,0,1,205,-15) translate(27.822265625 43.40277777777778)"/><path d="M320-118v42.35a6 6 0 0 1-6 6h-75.43a6 6 0 0 0-6 6v24.85" stroke="#5e5e5e" stroke-width="2" fill="none"/><path d="M320-119l.98-.03v1.06h-1.96v-1.1z" stroke="#5e5e5e" stroke-width=".05" fill="#5e5e5e"/><path d="M232.57-23.53l-4.63-14.27h9.27z" stroke="#5e5e5e" stroke-width="2" fill="#5e5e5e"/><path d="M80-394a6 6 0 0 1 6-6h167.83a6 6 0 0 1 6 6v24.9a6 6 0 0 1-6 6H86a6 6 0 0 1-6-6z" fill="none"/><use xlink:href="#h" transform="matrix(1,0,0,1,85,-395) translate(0 21.58376736111111)"/><use xlink:href="#i" transform="matrix(1,0,0,1,85,-395) translate(79.98046875 21.58376736111111)"/><path d="M780-250c0 22.1-17.9 40-40 40s-40-17.9-40-40 17.9-40 40-40 40 17.9 40 40z" stroke="#000" stroke-width="2" fill="#fff"/><use xlink:href="#j" transform="matrix(1,0,0,1,705,-285) translate(27.333984375 43.40277777777778)"/><path d="M620-90c0 22.1-17.9 40-40 40s-40-17.9-40-40 17.9-40 40-40 40 17.9 40 40z" stroke="#000" stroke-width="2" fill="#fff"/><use xlink:href="#k" transform="matrix(1,0,0,1,545,-125) translate(27.82769097222222 43.40277777777778)"/><path d="M780-90c0 22.1-17.9 40-40 40s-40-17.9-40-40 17.9-40 40-40 40 17.9 40 40z" stroke="#000" stroke-width="2" fill="#fff"/><use xlink:href="#l" transform="matrix(1,0,0,1,705,-125) translate(26.74262152777778 43.40277777777778)"/><path d="M940-90c0 22.1-17.9 40-40 40s-40-17.9-40-40 17.9-40 40-40 40 17.9 40 40z" stroke="#000" stroke-width="2" fill="#fff"/><use xlink:href="#m" transform="matrix(1,0,0,1,865,-125) translate(27.53472222222222 43.40277777777778)"/><path d="M520 30c0 22.1-17.9 40-40 40s-40-17.9-40-40 17.9-40 40-40 40 17.9 40 40z" stroke="#000" stroke-width="2" fill="#fff"/><use xlink:href="#n" transform="matrix(1,0,0,1,445,-5) translate(26.981336805555557 43.40277777777778)"/><path d="M740 30c0 22.1-17.9 40-40 40s-40-17.9-40-40 17.9-40 40-40 40 17.9 40 40z" stroke="#000" stroke-width="2" fill="#fff"/><use xlink:href="#o" transform="matrix(1,0,0,1,665,-5) translate(28.01215277777778 43.40277777777778)"/><path d="M840 30c0 22.1-17.9 40-40 40s-40-17.9-40-40 17.9-40 40-40 40 17.9 40 40z" stroke="#000" stroke-width="2" fill="#fff"/><use xlink:href="#p" transform="matrix(1,0,0,1,765,-5) translate(28.65776909722222 43.40277777777778)"/><path d="M940 30c0 22.1-17.9 40-40 40s-40-17.9-40-40 17.9-40 40-40 40 17.9 40 40z" stroke="#000" stroke-width="2" fill="#fff"/><use xlink:href="#q" transform="matrix(1,0,0,1,865,-5) translate(27.84939236111111 43.40277777777778)"/><path d="M740-208v58.5" stroke="#5e5e5e" stroke-width="2" fill="none"/><path d="M740-209l.98-.03v1.06H739v-1.1z" stroke="#5e5e5e" stroke-width=".05" fill="#5e5e5e"/><path d="M740-134.24l-4.63-14.26h9.26z" stroke="#5e5e5e" stroke-width="2" fill="#5e5e5e"/><path d="M740-208v32a6 6 0 0 1-6 6H586a6 6 0 0 0-6 6v14.5" stroke="#5e5e5e" stroke-width="2" fill="none"/><path d="M740-209l.98-.03v1.06H739v-1.1z" stroke="#5e5e5e" stroke-width=".05" fill="#5e5e5e"/><path d="M580-134.24l-4.63-14.26h9.26z" stroke="#5e5e5e" stroke-width="2" fill="#5e5e5e"/><path d="M740-208v32a6 6 0 0 0 6 6h148a6 6 0 0 1 6 6v14.5" stroke="#5e5e5e" stroke-width="2" fill="none"/><path d="M740-209l.98-.03v1.06H739v-1.1z" stroke="#5e5e5e" stroke-width=".05" fill="#5e5e5e"/><path d="M900-134.24l-4.63-14.26h9.26z" stroke="#5e5e5e" stroke-width="2" fill="#5e5e5e"/><path d="M571.25-49v12.5a6 6 0 0 1-6 6H481a1 1 0 0 0-1 1" stroke="#5e5e5e" stroke-width="2" fill="none"/><path d="M572.23-49.81v.83h-1.95v-1.22z" stroke="#5e5e5e" stroke-width=".05" fill="#5e5e5e"/><path d="M480-14.24l-4.63-14.26h9.26z" stroke="#5e5e5e" stroke-width="2" fill="#5e5e5e"/><path d="M731.25-49v12.98a6 6 0 0 1-6 6h-32.48a1.48 1.48 0 0 0-1.48 1.48" stroke="#5e5e5e" stroke-width="2" fill="none"/><path d="M732.23-49.81v.83h-1.95v-1.22z" stroke="#5e5e5e" stroke-width=".05" fill="#5e5e5e"/><path d="M691.3-13.27l-4.65-14.27h9.27z" stroke="#5e5e5e" stroke-width="2" fill="#5e5e5e"/><path d="M748.84-49v12.5a6 6 0 0 0 6 6H799a1 1 0 0 1 1 1" stroke="#5e5e5e" stroke-width="2" fill="none"/><path d="M749.82-48.97h-1.95v-.8h.15l1.8-.5z" stroke="#5e5e5e" stroke-width=".05" fill="#5e5e5e"/><path d="M800-14.24l-4.63-14.26h9.26z" stroke="#5e5e5e" stroke-width="2" fill="#5e5e5e"/><path d="M748.84-49v12.5a6 6 0 0 0 6 6H899a1 1 0 0 1 1 1" stroke="#5e5e5e" stroke-width="2" fill="none"/><path d="M749.82-48.97h-1.95v-.8h.15l1.8-.5z" stroke="#5e5e5e" stroke-width=".05" fill="#5e5e5e"/><path d="M900-14.24l-4.63-14.26h9.26z" stroke="#5e5e5e" stroke-width="2" fill="#5e5e5e"/><path d="M1360-218v45.82a6 6 0 0 1-6 6h-88.02" stroke="#5e5e5e" stroke-width="2" fill="none"/><path d="M1360-219l.97-.03v1.06h-1.94v-1.1z" stroke="#5e5e5e" stroke-width=".05" fill="#5e5e5e"/><path d="M1250.72-166.18l14.26-4.64v9.27z" stroke="#5e5e5e" stroke-width="2" fill="#5e5e5e"/><path d="M1246.48-166.18c0 22.1-17.9 40-40 40s-40-17.9-40-40 17.9-40 40-40 40 17.9 40 40z" stroke="#000" stroke-width="2" fill="#fff"/><use xlink:href="#c" transform="matrix(1,0,0,1,1171.4813226948474,-201.18143511615182) translate(21.490885416666668 43.40277777777778)"/><path d="M1206.48-124.18v42a6 6 0 0 1-6 6h-68a6 6 0 0 0-6 6v24.5" stroke="#5e5e5e" stroke-width="2" fill="none"/><path d="M1206.47-125.18l1-.03v1.05h-1.96v-1.1z" stroke="#5e5e5e" stroke-width=".05" fill="#5e5e5e"/><path d="M1126.48-30.42l-4.63-14.26h9.27z" stroke="#5e5e5e" stroke-width="2" fill="#5e5e5e"/><path d="M1166.48 13.82c0 22.1-17.9 40-40 40s-40-17.9-40-40 17.9-40 40-40 40 17.9 40 40z" stroke="#000" stroke-width="2" fill="#fff"/><use xlink:href="#r" transform="matrix(1,0,0,1,1091.4813226948474,-21.181435116151818) translate(21.214192708333336 43.40277777777778)"/><path d="M1224.77-128.52v44.17a6 6 0 0 0 6 6h49.7a6 6 0 0 1 6 6v26.67" stroke="#5e5e5e" stroke-width="2" fill="none"/><path d="M1225.74-128.5h-1.95v-.53l.34-.14 1.6-.9z" stroke="#5e5e5e" stroke-width=".05" fill="#5e5e5e"/><path d="M1286.48-30.42l-4.63-14.26h9.27z" stroke="#5e5e5e" stroke-width="2" fill="#5e5e5e"/><path d="M1326.48 13.82c0 22.1-17.9 40-40 40s-40-17.9-40-40 17.9-40 40-40 40 17.9 40 40z" stroke="#000" stroke-width="2" fill="#fff"/><use xlink:href="#s" transform="matrix(1,0,0,1,1251.4813226948474,-21.181435116151818) translate(21.876085069444443 43.40277777777778)"/><path d="M1360-218v45.82a6 6 0 0 0 6 6h80.98" stroke="#5e5e5e" stroke-width="2" fill="none"/><path d="M1360-219l.97-.03v1.06h-1.94v-1.1z" stroke="#5e5e5e" stroke-width=".05" fill="#5e5e5e"/><path d="M1462.24-166.18l-14.26 4.63v-9.27z" stroke="#5e5e5e" stroke-width="2" fill="#5e5e5e"/><path d="M1546.48-166.18c0 22.1-17.9 40-40 40s-40-17.9-40-40 17.9-40 40-40 40 17.9 40 40z" stroke="#000" stroke-width="2" fill="#fff"/><use xlink:href="#f" transform="matrix(1,0,0,1,1471.4813226948474,-201.18143511615182) translate(16.461588541666668 43.40277777777778)"/><path d="M1466.48 13.82c0 22.1-17.9 40-40 40s-40-17.9-40-40 17.9-40 40-40 40 17.9 40 40z" stroke="#000" stroke-width="2" fill="#fff"/><use xlink:href="#t" transform="matrix(1,0,0,1,1391.4813226948474,-21.181435116151818) translate(21.34982638888889 43.40277777777778)"/><path d="M1506.48-124.18v42.35a6 6 0 0 1-6 6h-75.43a6 6 0 0 0-6 6v24.85" stroke="#5e5e5e" stroke-width="2" fill="none"/><path d="M1506.47-125.18l1-.03v1.05h-1.96v-1.1z" stroke="#5e5e5e" stroke-width=".05" fill="#5e5e5e"/><path d="M1419.05-29.71L1414.42-44h9.27z" stroke="#5e5e5e" stroke-width="2" fill="#5e5e5e"/><path d="M1506.48-124.18v42a6 6 0 0 0 6 6H1614a6 6 0 0 1 6 6v24.5" stroke="#5e5e5e" stroke-width="2" fill="none"/><path d="M1506.47-125.18l1-.03v1.05h-1.96v-1.1z" stroke="#5e5e5e" stroke-width=".05" fill="#5e5e5e"/><path d="M1620-30.42l-4.63-14.26h9.27z" stroke="#5e5e5e" stroke-width="2" fill="#5e5e5e"/><path d="M1660 13.82c0 22.1-17.9 40-40 40s-40-17.9-40-40 17.9-40 40-40 40 17.9 40 40z" stroke="#000" stroke-width="2" fill="#fff"/><use xlink:href="#u" transform="matrix(1,0,0,1,1585,-21.181435116151818) translate(16.700303819444443 43.40277777777778)"/><path d="M1740 140c0 22.1-17.9 40-40 40s-40-17.9-40-40 17.9-40 40-40 40 17.9 40 40z" stroke="#000" stroke-width="2" fill="#fff"/><use xlink:href="#v" transform="matrix(1,0,0,1,1665,105) translate(14.329427083333332 43.40277777777778)"/><path d="M1240 140c0 22.1-17.9 40-40 40s-40-17.9-40-40 17.9-40 40-40 40 17.9 40 40z" stroke="#000" stroke-width="2" fill="#fff"/><use xlink:href="#w" transform="matrix(1,0,0,1,1165,105) translate(23.704427083333336 43.40277777777778)"/><path d="M1420 133.82c0 22.1-17.9 40-40 40s-40-17.9-40-40 17.9-40 40-40 40 17.9 40 40z" stroke="#000" stroke-width="2" fill="#fff"/><use xlink:href="#x" transform="matrix(1,0,0,1,1345,98.81856488384818) translate(23.606770833333336 43.40277777777778)"/><path d="M1520 133.82c0 22.1-17.9 40-40 40s-40-17.9-40-40 17.9-40 40-40 40 17.9 40 40z" stroke="#000" stroke-width="2" fill="#fff"/><use xlink:href="#y" transform="matrix(1,0,0,1,1445,98.81856488384818) translate(20.948350694444443 43.40277777777778)"/><path d="M1126.48 55.82v15.1a6 6 0 0 0 6 6h63.93a3.6 3.6 0 0 1 3.6 3.58" stroke="#5e5e5e" stroke-width="2" fill="none"/><path d="M1126.47 54.82l1-.04v1.06h-1.96v-1.08z" stroke="#5e5e5e" stroke-width=".05" fill="#5e5e5e"/><path d="M1200 95.76l-4.63-14.26h9.27z" stroke="#5e5e5e" stroke-width="2" fill="#5e5e5e"/><path d="M1620 55.82v15.1a6 6 0 0 0 6 6h70.4a3.6 3.6 0 0 1 3.6 3.58" stroke="#5e5e5e" stroke-width="2" fill="none"/><path d="M1620 54.82l.97-.04v1.06h-1.94v-1.08z" stroke="#5e5e5e" stroke-width=".05" fill="#5e5e5e"/><path d="M1700 95.76l-4.63-14.26h9.27z" stroke="#5e5e5e" stroke-width="2" fill="#5e5e5e"/><path d="M1426.48 55.82v12a6 6 0 0 0 6 6h47.02a.5.5 0 0 1 .5.5" stroke="#5e5e5e" stroke-width="2" fill="none"/><path d="M1426.47 54.82l1-.04v1.06h-1.96v-1.08z" stroke="#5e5e5e" stroke-width=".05" fill="#5e5e5e"/><path d="M1480 89.58l-4.63-14.26h9.27z" stroke="#5e5e5e" stroke-width="2" fill="#5e5e5e"/><path d="M1425.48 60H1386a6 6 0 0 0-6 6v8.32M1425.46 60h1.02" stroke="#5e5e5e" stroke-width="2" fill="none"/><path d="M1380 89.58l-4.63-14.26h9.27z" stroke="#5e5e5e" stroke-width="2" fill="#5e5e5e"/><path d="M1400-260c0 22.1-17.9 40-40 40s-40-17.9-40-40 17.9-40 40-40 40 17.9 40 40z" stroke="#000" stroke-width="2" fill="#fff"/><use xlink:href="#z" transform="matrix(1,0,0,1,1325,-295) translate(21.116536458333336 43.40277777777778)"/><path d="M1200-384a6 6 0 0 1 6-6h332.56a6 6 0 0 1 6 6v24.9a6 6 0 0 1-6 6H1206a6 6 0 0 1-6-6z" fill="none"/><use xlink:href="#h" transform="matrix(1,0,0,1,1205,-385) translate(0 21.58376736111111)"/><use xlink:href="#A" transform="matrix(1,0,0,1,1205,-385) translate(79.98046875 21.58376736111111)"/><use xlink:href="#B" transform="matrix(1,0,0,1,1205,-385) translate(176.07421875 21.58376736111111)"/><use xlink:href="#C" transform="matrix(1,0,0,1,1205,-385) translate(211.71875 21.58376736111111)"/><defs><path d="M52 0l541-1490h220L1361 0h-200l-149-416H398L254 0H52zm404-582h497c-103-290-145-390-251-756-108 377-145 460-246 756" id="D"/><path d="M180 0v-1490h510c348 0 508 194 508 460 0 198-88 351-276 417L1256 0h-220L726-579c-117 2-238 0-356 1V0H180zm190-747h312c235 0 327-108 327-283 0-177-92-293-329-293H370v576" id="E"/><path d="M180 0v-1490h528c311 0 458 177 458 395 0 191-114 278-244 313v14c139 9 302 137 302 371 0 225-148 397-499 397H180zm190-168h350c232 0 321-102 321-231 0-149-120-277-311-277H370v508zm0-668h328c160 0 286-101 286-255 0-129-87-231-280-231H370v486" id="F"/><path d="M784 20c-382 0-662-292-662-764 0-473 280-766 662-766s660 293 660 766c0 472-278 764-660 764zm0-176c266 0 475-207 475-588 0-383-209-590-475-590-268 0-477 208-477 590 0 380 209 588 477 588" id="G"/><path d="M180 0v-1490h190v1322h690V0H180" id="H"/><g id="a"><use transform="matrix(0.010850694444444444,0,0,0.010850694444444444,0,0)" xlink:href="#D"/><use transform="matrix(0.010850694444444444,0,0,0.010850694444444444,15.33203125,0)" xlink:href="#E"/><use transform="matrix(0.010850694444444444,0,0,0.010850694444444444,29.633246527777775,0)" xlink:href="#F"/><use transform="matrix(0.010850694444444444,0,0,0.010850694444444444,44.173177083333336,0)" xlink:href="#G"/><use transform="matrix(0.010850694444444444,0,0,0.010850694444444444,61.16536458333333,0)" xlink:href="#H"/></g><path d="M653-1490V0H466v-1314h-10L96-1047v-204l324-239h233" id="I"/><use transform="matrix(0.010850694444444444,0,0,0.010850694444444444,0,0)" xlink:href="#I" id="b"/><path d="M626 20c-262 0-458-168-468-396h184c12 133 134 229 284 229 180 0 311-137 311-326 0-192-136-335-323-335-92 0-196 33-255 78l-178-22 88-738h784v167H429l-51 435h8c61-51 160-87 263-87 273 0 474 211 474 499 0 286-210 496-497 496" id="J"/><g id="c"><use transform="matrix(0.010850694444444444,0,0,0.010850694444444444,0,0)" xlink:href="#J"/><use transform="matrix(0.010850694444444444,0,0,0.010850694444444444,13.509114583333332,0)" xlink:href="#J"/></g><g id="d"><use transform="matrix(0.010850694444444444,0,0,0.010850694444444444,0,0)" xlink:href="#J"/><use transform="matrix(0.010850694444444444,0,0,0.010850694444444444,13.509114583333332,0)" xlink:href="#J"/><use transform="matrix(0.010850694444444444,0,0,0.010850694444444444,27.018229166666664,0)" xlink:href="#J"/><use transform="matrix(0.010850694444444444,0,0,0.010850694444444444,40.52734375,0)" xlink:href="#J"/></g><path d="M154 0v-137l495-537c165-179 249-281 249-418 0-156-121-253-280-253-170 0-278 110-278 278H158c0-264 200-443 465-443 266 0 455 183 455 416 0 161-73 288-336 568L416-179v12h687V0H154" id="K"/><use transform="matrix(0.010850694444444444,0,0,0.010850694444444444,0,0)" xlink:href="#K" id="e"/><path d="M646 20c-332 0-524-278-524-764 0-483 194-766 524-766s524 283 524 766c0 485-191 764-524 764zm0-166c218 0 341-220 341-598 0-380-123-601-341-601s-341 222-341 601c0 378 123 598 341 598" id="L"/><g id="f"><use transform="matrix(0.010850694444444444,0,0,0.010850694444444444,0,0)" xlink:href="#I"/><use transform="matrix(0.010850694444444444,0,0,0.010850694444444444,9.038628472222221,0)" xlink:href="#L"/><use transform="matrix(0.010850694444444444,0,0,0.010850694444444444,23.057725694444443,0)" xlink:href="#L"/></g><path d="M120-303v-155l652-1032h231v1020h202v167h-202V0H821v-303H120zm702-167v-782h-12L323-482v12h499" id="M"/><use transform="matrix(0.010850694444444444,0,0,0.010850694444444444,0,0)" xlink:href="#M" id="g"/><g id="h"><use transform="matrix(0.010850694444444444,0,0,0.010850694444444444,0,0)" xlink:href="#D"/><use transform="matrix(0.010850694444444444,0,0,0.010850694444444444,15.33203125,0)" xlink:href="#E"/><use transform="matrix(0.010850694444444444,0,0,0.010850694444444444,29.633246527777775,0)" xlink:href="#F"/><use transform="matrix(0.010850694444444444,0,0,0.010850694444444444,44.173177083333336,0)" xlink:href="#G"/><use transform="matrix(0.010850694444444444,0,0,0.010850694444444444,61.16536458333333,0)" xlink:href="#H"/></g><path d="M370-1490V0H180v-1490h190" id="N"/><path d="M180 0v-1490h224l606 953c40 63 108 177 176 312-27-437-7-821-13-1265h190V0h-226C860-448 622-778 356-1262c27 476 11 792 15 1262H180" id="O"/><g id="i"><use transform="matrix(0.010850694444444444,0,0,0.010850694444444444,0,0)" xlink:href="#F"/><use transform="matrix(0.010850694444444444,0,0,0.010850694444444444,14.539930555555555,0)" xlink:href="#N"/><use transform="matrix(0.010850694444444444,0,0,0.010850694444444444,20.5078125,0)" xlink:href="#O"/><use transform="matrix(0.010850694444444444,0,0,0.010850694444444444,37.25043402777778,0)" xlink:href="#D"/><use transform="matrix(0.010850694444444444,0,0,0.010850694444444444,52.58246527777778,0)" xlink:href="#E"/><use transform="matrix(0.010850694444444444,0,0,0.010850694444444444,66.88368055555556,0)" xlink:href="#N"/><use transform="matrix(0.010850694444444444,0,0,0.010850694444444444,72.8515625,0)" xlink:href="#G"/></g><use transform="matrix(0.010850694444444444,0,0,0.010850694444444444,0,0)" xlink:href="#D" id="j"/><path d="M98-1322v-168h1126v168H757V0H567v-1322H98" id="P"/><use transform="matrix(0.010850694444444444,0,0,0.010850694444444444,0,0)" xlink:href="#P" id="k"/><path d="M180 0v-1490h190v644h782v-644h190V0h-190v-678H370V0H180" id="Q"/><use transform="matrix(0.010850694444444444,0,0,0.010850694444444444,0,0)" xlink:href="#Q" id="l"/><path d="M180 0v-1490h190c0 262 1 526-3 784 217-279 467-523 702-784h249L716-845 1319 0h-225L585-716 370-489V0H180" id="R"/><use transform="matrix(0.010850694444444444,0,0,0.010850694444444444,0,0)" xlink:href="#R" id="m"/><path d="M645 0H180v-1490h484c435 0 692 280 692 742 0 466-257 748-711 748zM370-168h263c363 0 539-218 539-580 0-358-176-574-521-574H370v1154" id="S"/><use transform="matrix(0.010850694444444444,0,0,0.010850694444444444,0,0)" xlink:href="#S" id="n"/><path d="M130 0v-134l666-991c45-67 96-135 147-202-269 9-546 3-821 5v-168h1036v136L502-379c-49 72-103 145-157 216 268-9 546-3 821-5V0H130" id="T"/><use transform="matrix(0.010850694444444444,0,0,0.010850694444444444,0,0)" xlink:href="#T" id="o"/><path d="M545 20c-263 0-445-160-445-446v-80h190v80c0 182 102 279 255 279 152 0 254-97 254-279v-1064h190v1064c0 286-181 446-444 446" id="U"/><use transform="matrix(0.010850694444444444,0,0,0.010850694444444444,0,0)" xlink:href="#U" id="p"/><use transform="matrix(0.010850694444444444,0,0,0.010850694444444444,0,0)" xlink:href="#E" id="q"/><g id="r"><use transform="matrix(0.010850694444444444,0,0,0.010850694444444444,0,0)" xlink:href="#K"/><use transform="matrix(0.010850694444444444,0,0,0.010850694444444444,13.55251736111111,0)" xlink:href="#L"/></g><path d="M200 0l662-1311v-12H98v-167h963v177L400 0H200" id="V"/><g id="s"><use transform="matrix(0.010850694444444444,0,0,0.010850694444444444,0,0)" xlink:href="#V"/><use transform="matrix(0.010850694444444444,0,0,0.010850694444444444,12.22873263888889,0)" xlink:href="#L"/></g><path d="M633 20c-303 0-511-173-511-416 0-188 124-348 291-378v-8c-145-37-237-174-237-332 0-227 192-396 457-396 261 0 456 169 456 396 0 158-94 295-235 332v8c162 30 291 190 291 378 0 243-212 416-512 416zm0-165c197 0 322-103 322-261 0-165-138-283-322-283-188 0-324 118-324 283 0 158 123 261 324 261zm0-703c157 0 272-101 272-252 0-149-110-246-272-246-165 0-273 97-273 246 0 151 112 252 273 252" id="W"/><g id="t"><use transform="matrix(0.010850694444444444,0,0,0.010850694444444444,0,0)" xlink:href="#W"/><use transform="matrix(0.010850694444444444,0,0,0.010850694444444444,13.74782986111111,0)" xlink:href="#K"/></g><path d="M603 20c-253 0-434-161-469-399h188c31 132 124 231 281 231 227 0 367-207 367-568h-12c-80 122-211 199-367 199-257 0-469-206-469-493 0-278 200-505 506-500 245 4 520 158 520 706 0 527-208 824-545 824zm16-703c181 0 324-157 324-332 0-171-135-328-318-328-180 0-317 148-317 332 0 183 131 328 311 328" id="X"/><g id="u"><use transform="matrix(0.010850694444444444,0,0,0.010850694444444444,0,0)" xlink:href="#X"/><use transform="matrix(0.010850694444444444,0,0,0.010850694444444444,13.780381944444445,0)" xlink:href="#X"/><use transform="matrix(0.010850694444444444,0,0,0.010850694444444444,27.56076388888889,0)" xlink:href="#I"/></g><g id="v"><use transform="matrix(0.010850694444444444,0,0,0.010850694444444444,0,0)" xlink:href="#X"/><use transform="matrix(0.010850694444444444,0,0,0.010850694444444444,13.780381944444445,0)" xlink:href="#X"/><use transform="matrix(0.010850694444444444,0,0,0.010850694444444444,27.56076388888889,0)" xlink:href="#X"/></g><g id="w"><use transform="matrix(0.010850694444444444,0,0,0.010850694444444444,0,0)" xlink:href="#K"/><use transform="matrix(0.010850694444444444,0,0,0.010850694444444444,13.55251736111111,0)" xlink:href="#I"/></g><g id="x"><use transform="matrix(0.010850694444444444,0,0,0.010850694444444444,0,0)" xlink:href="#W"/><use transform="matrix(0.010850694444444444,0,0,0.010850694444444444,13.74782986111111,0)" xlink:href="#I"/></g><g id="y"><use transform="matrix(0.010850694444444444,0,0,0.010850694444444444,0,0)" xlink:href="#W"/><use transform="matrix(0.010850694444444444,0,0,0.010850694444444444,13.74782986111111,0)" xlink:href="#M"/></g><g id="z"><use transform="matrix(0.010850694444444444,0,0,0.010850694444444444,0,0)" xlink:href="#W"/><use transform="matrix(0.010850694444444444,0,0,0.010850694444444444,13.74782986111111,0)" xlink:href="#L"/></g><g id="A"><use transform="matrix(0.010850694444444444,0,0,0.010850694444444444,0,0)" xlink:href="#F"/><use transform="matrix(0.010850694444444444,0,0,0.010850694444444444,14.539930555555555,0)" xlink:href="#N"/><use transform="matrix(0.010850694444444444,0,0,0.010850694444444444,20.5078125,0)" xlink:href="#O"/><use transform="matrix(0.010850694444444444,0,0,0.010850694444444444,37.25043402777778,0)" xlink:href="#D"/><use transform="matrix(0.010850694444444444,0,0,0.010850694444444444,52.58246527777778,0)" xlink:href="#E"/><use transform="matrix(0.010850694444444444,0,0,0.010850694444444444,66.88368055555556,0)" xlink:href="#N"/><use transform="matrix(0.010850694444444444,0,0,0.010850694444444444,72.8515625,0)" xlink:href="#G"/></g><path d="M180 0v-1490h908v168H370v486h669v168H370v500h727V0H180" id="Y"/><g id="B"><use transform="matrix(0.010850694444444444,0,0,0.010850694444444444,0,0)" xlink:href="#S"/><use transform="matrix(0.010850694444444444,0,0,0.010850694444444444,16.03732638888889,0)" xlink:href="#Y"/></g><path d="M763 24c-353 0-583-224-583-531v-983h190v968c0 214 149 370 393 370 243 0 391-156 391-370v-968h190v983c0 307-230 531-581 531" id="Z"/><path d="M657 26c-323 0-524-166-541-416h195c15 169 171 246 346 246 202 0 356-106 356-265 5-203-294-238-475-293-239-73-380-191-380-389 0-252 224-419 512-419 294 0 499 171 508 396H992c-17-145-151-228-328-228-193 0-321 102-321 242 0 156 175 211 284 241l149 41c160 44 422 134 422 412 0 244-197 432-541 432" id="aa"/><path d="M784 20c-382 0-662-292-662-764 0-473 280-766 662-766s660 293 660 766c0 282-99 499-260 629l192 255h-198L1049-33C969 2 880 20 784 20zm-62-486h198l156 205c112-98 183-261 183-483 0-383-209-590-475-590-268 0-477 208-477 590 0 380 209 588 477 588 54 0 106-9 154-25" id="ab"/><g id="C"><use transform="matrix(0.010850694444444444,0,0,0.010850694444444444,0,0)" xlink:href="#F"/><use transform="matrix(0.010850694444444444,0,0,0.010850694444444444,14.539930555555555,0)" xlink:href="#Z"/><use transform="matrix(0.010850694444444444,0,0,0.010850694444444444,31.07638888888889,0)" xlink:href="#aa"/><use transform="matrix(0.010850694444444444,0,0,0.010850694444444444,45.334201388888886,0)" xlink:href="#ab"/><use transform="matrix(0.010850694444444444,0,0,0.010850694444444444,62.326388888888886,0)" xlink:href="#Z"/><use transform="matrix(0.010850694444444444,0,0,0.010850694444444444,78.86284722222221,0)" xlink:href="#Y"/><use transform="matrix(0.010850694444444444,0,0,0.010850694444444444,92.22005208333333,0)" xlink:href="#S"/><use transform="matrix(0.010850694444444444,0,0,0.010850694444444444,107.49782986111111,0)" xlink:href="#D"/></g></defs></g></svg>