<svg xmlns="http://www.w3.org/2000/svg" xmlns:xlink="http://www.w3.org/1999/xlink" xmlns:lucid="lucid" width="2264.03" height="716.97"><g transform="translate(-758.5 -680)" lucid:page-tab-id="0_0"><path d="M500 500h3000v1000H500z" fill="#f2f3f5"/><path d="M1560 800c0 22.1-17.9 40-40 40s-40-17.9-40-40 17.9-40 40-40 40 17.9 40 40z" stroke="#000" stroke-width="2" fill="#fff"/><use xlink:href="#a" transform="matrix(1,0,0,1,1485,765) translate(21.51123046875 44.875)"/><path d="M1440 934.5c0 22.1-17.9 40-40 40s-40-17.9-40-40c0-22.08 17.9-40 40-40s40 17.92 40 40z" stroke="#000" stroke-width="2" fill="#fff"/><use xlink:href="#b" transform="matrix(1,0,0,1,1365,899.5085486368149) translate(26.9384765625 44.875)"/><path d="M1680 934.5c0 22.1-17.9 40-40 40s-40-17.9-40-40c0-22.08 17.9-40 40-40s40 17.92 40 40z" stroke="#000" stroke-width="2" fill="#fff"/><use xlink:href="#c" transform="matrix(1,0,0,1,1605,899.5085486368149) translate(21.65087890625 44.875)"/><path d="M1320 1073.02c0 22.1-17.9 40-40 40s-40-17.9-40-40 17.9-40 40-40 40 17.9 40 40z" stroke="#000" stroke-width="2" fill="#fff"/><use xlink:href="#d" transform="matrix(1,0,0,1,1245,1038.0200073725682) translate(26.9384765625 44.875)"/><path d="M1594.05 1073.02c0 22.1-17.9 40-40 40s-40-17.9-40-40 17.9-40 40-40 40 17.9 40 40z" stroke="#000" stroke-width="2" fill="#fff"/><use xlink:href="#e" transform="matrix(1,0,0,1,1519.0458349430128,1038.0200073725682) translate(21.8095703125 44.875)"/><path d="M1760 1073.02c0 22.1-17.9 40-40 40s-40-17.9-40-40 17.9-40 40-40 40 17.9 40 40z" stroke="#000" stroke-width="2" fill="#fff"/><use xlink:href="#f" transform="matrix(1,0,0,1,1685,1038.0200073725682) translate(18.87060546875 44.875)"/><path d="M1520 1200c0 22.1-17.9 40-40 40s-40-17.9-40-40 17.9-40 40-40 40 17.9 40 40z" stroke="#000" stroke-width="2" fill="#fff"/><use xlink:href="#g" transform="matrix(1,0,0,1,1445,1165) translate(21.7841796875 44.875)"/><path d="M1510.93 841.47l-.2.9-.6 2.14-.68 1.97-.74 1.8-.78 1.66-.86 1.57-.9 1.48-1 1.4-.86 1.1m-12.25 9.5l-2.46 1.2-3.78 1.57-5.54 1.95-17.76 5.42m-14.9 4.74l-2.67 1.13-3.6 1.73-3.02 1.7-2.63 1.67-1.75 1.24" stroke="#3a414a" stroke-width="3" stroke-linejoin="round" fill="none"/><path d="M1509.83 839.73l2.87.54-.34 1.55-2.88-.64.32-1.46z" stroke="#3a414a" stroke-width=".05" fill="#3a414a"/><path d="M1424.15 897.87l3.37-14.62 10.97 10.22z" stroke="#3a414a" stroke-width="3" fill="#3a414a"/><path d="M1528.25 841.7l.25 1.25.3 1.22.34 1.14.37 1.1.4 1 .44.97.47.93.5.88.53.86.57.82.6.8.64.78.1.1m10.8 7.4l.94.38 1.94.7 2.25.7 2.66.7 3.23.7 4.08.68 5.5.67 5.23.4m13.18.77l23 1.18 3.36.4m12.92 2.74l.1.04 1.76.63 1.5.62 1.34.62 1.2.62 1.05.6.96.62.88.6.8.63.74.63.68.63.32.32" stroke="#3a414a" stroke-width="3" stroke-linejoin="round" fill="none"/><path d="M1529.7 841.52l-2.9.44-.24-1.55 1.46-.18 1.43-.38z" stroke="#3a414a" stroke-width=".05" fill="#3a414a"/><path d="M1638.97 890.7l-11.52-9.62 14.1-5.17z" stroke="#3a414a" stroke-width="3" fill="#3a414a"/><path d="M1399.96 977v.4l-.13 1.7-.2 1.56-.23 1.42-.3 1.3-.32 1.24-.38 1.15-.4 1.08-.46 1.03-.48.98-.53.93-.56.9-.6.88-.67.86-.7.83-.46.5m-15.8 8.9l-3.07.9-4.9 1.18-9 1.7-19.05 3.24m-17.85 4.13l-2.65.92-2.95 1.2-2.56 1.16-2.23 1.18-2 1.17-1.8 1.17-1.63 1.18-.43.34" stroke="#3a414a" stroke-width="3" stroke-linejoin="round" fill="none"/><path d="M1400 975.5l1.48-.04-.04 1.62-2.95-.07.03-1.58z" stroke="#3a414a" stroke-width=".05" fill="#3a414a"/><path d="M1298.7 1033.36l2.2-14.84 11.75 9.33z" stroke="#3a414a" stroke-width="3" fill="#3a414a"/><path d="M1653.38 974.86l.25.82.82 2.08.94 1.95 1.06 1.87 1.22 1.8 1.4 1.75.53.58m9.9 7.73l1.93 1.12 5.57 2.68 15.54 6.4m11.66 4.8l3.23 1.86 2.38 1.62 1.88 1.5 1.53 1.4 1.03 1.12" stroke="#3a414a" stroke-width="3" stroke-linejoin="round" fill="none"/><path d="M1654.8 974.47l-2.82.86-.47-1.53 1.44-.37 1.37-.56z" stroke="#3a414a" stroke-width=".05" fill="#3a414a"/><path d="M1719 1029.2l-11.46-9.7 14.13-5.06z" stroke="#3a414a" stroke-width="3" fill="#3a414a"/><path d="M1649.2 975.97v.04l.25 1.34.16 1.2.1 1.1.02.98-.03.92-.08.86-.1.8-.15.77-.18.73-.22.7-.24.67-.27.65-.3.64-.35.63-.38.6-.43.6-.47.63-.53.6-.6.63-.67.62-.34.3m-16.08 6.94l-4.3.98-11.15 1.87-19.4 2.96m-17.26 3.6l-.37.1-3.26 1.12-2.6 1.04-2.12.97-1.8.95-1.52.92-1.32.9-1.14.86-1.02.85-.38.35" stroke="#3a414a" stroke-width="3" stroke-linejoin="round" fill="none"/><path d="M1650.64 975.66l-2.87.7-.37-1.55.62-.07 2.25-.6z" stroke="#3a414a" stroke-width=".05" fill="#3a414a"/><path d="M1555.22 1029.26l-1.84-14.9 13.8 5.86z" stroke="#3a414a" stroke-width="3" fill="#3a414a"/><path d="M1553.97 1115.52l-.07 1.64-.4 2.7-.58 2.36-.76 2.17-.95 2.03-1.15 1.97-1.43 1.97-1.8 2.04-.26.23m-15.77 10.73l-14.7 8.5-1.72 1.3" stroke="#3a414a" stroke-width="3" stroke-linejoin="round" fill="none"/><path d="M1554.03 1114.02l1.5-.05-.08 1.66-2.95-.14.07-1.57z" stroke="#3a414a" stroke-width=".05" fill="#3a414a"/><path d="M1504.43 1163.55l3.57-14.57 10.83 10.37z" stroke="#3a414a" stroke-width="3" fill="#3a414a"/><path d="M760 766a6 6 0 0 1 6-6h429.97a6 6 0 0 1 6 6v26.97a6 6 0 0 1-6 6H766a6 6 0 0 1-6-6z" fill="#14171a"/><path d="M760 766a6 6 0 0 1 6-6h429.97a6 6 0 0 1 6 6v26.97a6 6 0 0 1-6 6H766a6 6 0 0 1-6-6z" stroke="#000" stroke-opacity="0" stroke-width="3" fill="none"/><use xlink:href="#h" transform="matrix(1,0,0,1,790.132,770) translate(0 13.936376953125002)"/><use xlink:href="#i" transform="matrix(1,0,0,1,790.132,770) translate(50.22817382812501 13.936376953125002)"/><use xlink:href="#j" transform="matrix(1,0,0,1,790.132,770) translate(231.04959960937504 13.936376953125002)"/><use xlink:href="#k" transform="matrix(1,0,0,1,790.132,770) translate(291.32340820312504 13.936376953125002)"/><use xlink:href="#l" transform="matrix(1,0,0,1,790.132,770) translate(341.55158203125006 13.936376953125002)"/><use xlink:href="#m" transform="matrix(1,0,0,1,770.044,770) translate(0.9543652343749986 13.936376953125002)"/><use xlink:href="#n" transform="matrix(1,0,0,1,770.044,770) translate(0 32.899658203125)"/><path d="M1116.8 800.47l.3 12.6m.3 12.6l.17 7.48.7 17.7m.52 12.6l.5 12.58" stroke="#3a414a" stroke-width="3" stroke-linejoin="round" fill="none"/><path d="M1118.3 800.48l-2.96.07-.04-1.58h2.95z" stroke="#3a414a" stroke-width=".05" fill="#3a414a"/><path d="M1119.88 890.5l-8.02-12.67 15-.6z" stroke="#3a414a" stroke-width="3" fill="#3a414a"/><path d="M1160 934.5c0 22.1-17.9 40-40 40s-40-17.9-40-40c0-22.08 17.9-40 40-40s40 17.92 40 40z" stroke="#000" stroke-width="2" fill="#fff"/><use xlink:href="#e" transform="matrix(1,0,0,1,1085,899.5085486368149) translate(21.8095703125 44.875)"/><path d="M1960 686a6 6 0 0 1 6-6h392.7a6 6 0 0 1 6 6v67.22a6 6 0 0 1-6 6H1966a6 6 0 0 1-6-6z" fill="none"/><use xlink:href="#o" transform="matrix(1,0,0,1,1965,685) translate(0 25.582617187500006)"/><use xlink:href="#p" transform="matrix(1,0,0,1,1965,685) translate(99.2265625 25.582617187500006)"/><use xlink:href="#q" transform="matrix(1,0,0,1,1965,685) translate(136.8681640625 25.582617187500006)"/><use xlink:href="#r" transform="matrix(1,0,0,1,1965,685) translate(228.8583984375 25.582617187500006)"/><use xlink:href="#s" transform="matrix(1,0,0,1,1965,685) translate(262.5517578125 25.582617187500006)"/><use xlink:href="#p" transform="matrix(1,0,0,1,1965,685) translate(305.0810546875 25.582617187500006)"/><use xlink:href="#t" transform="matrix(1,0,0,1,1965,685) translate(342.72265625 25.582617187500006)"/><use xlink:href="#u" transform="matrix(1,0,0,1,1965,685) translate(0 63.3333984375)"/><path d="M2000 806a6 6 0 0 1 6-6h762.4a6 6 0 0 1 6 6v67.22a6 6 0 0 1-6 6H2006a6 6 0 0 1-6-6z" fill="none"/><use xlink:href="#v" transform="matrix(1,0,0,1,2005,805) translate(0 25.582617187500006)"/><use xlink:href="#w" transform="matrix(1,0,0,1,2005,805) translate(27.37109375 25.582617187500006)"/><use xlink:href="#p" transform="matrix(1,0,0,1,2005,805) translate(146.884765625 25.582617187500006)"/><use xlink:href="#x" transform="matrix(1,0,0,1,2005,805) translate(184.5263671875 25.582617187500006)"/><use xlink:href="#y" transform="matrix(1,0,0,1,2005,805) translate(376.873046875 25.582617187500006)"/><use xlink:href="#r" transform="matrix(1,0,0,1,2005,805) translate(391.67578125 25.582617187500006)"/><use xlink:href="#z" transform="matrix(1,0,0,1,2005,805) translate(425.369140625 25.582617187500006)"/><use xlink:href="#A" transform="matrix(1,0,0,1,2005,805) translate(464.9912109375 25.582617187500006)"/><use xlink:href="#y" transform="matrix(1,0,0,1,2005,805) translate(489.505859375 25.582617187500006)"/><use xlink:href="#B" transform="matrix(1,0,0,1,2005,805) translate(504.30859375 25.582617187500006)"/><use xlink:href="#C" transform="matrix(1,0,0,1,2005,805) translate(528.8232421875 25.582617187500006)"/><use xlink:href="#D" transform="matrix(1,0,0,1,2005,805) translate(556.0166015625 25.582617187500006)"/><use xlink:href="#E" transform="matrix(1,0,0,1,2005,805) translate(641.189453125 25.582617187500006)"/><use xlink:href="#F" transform="matrix(1,0,0,1,2005,805) translate(666.4404296875 25.582617187500006)"/><use xlink:href="#G" transform="matrix(1,0,0,1,2005,805) translate(706.392578125 25.582617187500006)"/><use xlink:href="#H" transform="matrix(1,0,0,1,2005,805) translate(0 63.3333984375)"/><use xlink:href="#z" transform="matrix(1,0,0,1,2005,805) translate(75.5751953125 63.3333984375)"/><use xlink:href="#I" transform="matrix(1,0,0,1,2005,805) translate(115.197265625 63.3333984375)"/><use xlink:href="#y" transform="matrix(1,0,0,1,2005,805) translate(215.4013671875 63.3333984375)"/><use xlink:href="#J" transform="matrix(1,0,0,1,2005,805) translate(230.2041015625 63.3333984375)"/><use xlink:href="#K" transform="matrix(1,0,0,1,2005,805) translate(291.23046875 63.3333984375)"/><use xlink:href="#L" transform="matrix(1,0,0,1,2005,805) translate(331.1826171875 63.3333984375)"/><use xlink:href="#M" transform="matrix(1,0,0,1,2005,805) translate(488.8837890625 63.3333984375)"/><path d="M1960 854.5c0 22.1-17.9 40-40 40s-40-17.9-40-40c0-22.08 17.9-40 40-40s40 17.92 40 40z" stroke="#000" stroke-width="2" fill="#fff"/><g><use xlink:href="#a" transform="matrix(1,0,0,1,1885,819.5085486368149) translate(21.51123046875 44.875)"/></g><path d="M1960 1014.5c0 22.1-17.9 40-40 40s-40-17.9-40-40c0-22.08 17.9-40 40-40s40 17.92 40 40z" stroke="#000" stroke-width="2" fill="#fff"/><g><use xlink:href="#c" transform="matrix(1,0,0,1,1885,979.5085486368149) translate(21.65087890625 44.875)"/></g><path d="M2000 962.02a6 6 0 0 1 6-6h845.85a6 6 0 0 1 6 6V1067a6 6 0 0 1-6 6H2006a6 6 0 0 1-6-6z" fill="none"/><g><use xlink:href="#N" transform="matrix(1,0,0,1,2005,961.0232751993149) translate(0 25.207226562500004)"/><use xlink:href="#O" transform="matrix(1,0,0,1,2005,961.0232751993149) translate(195.9140625 25.207226562500004)"/><use xlink:href="#P" transform="matrix(1,0,0,1,2005,961.0232751993149) translate(237.630859375 25.207226562500004)"/><use xlink:href="#Q" transform="matrix(1,0,0,1,2005,961.0232751993149) translate(0 62.9580078125)"/><use xlink:href="#R" transform="matrix(1,0,0,1,2005,961.0232751993149) translate(138.912109375 62.9580078125)"/><use xlink:href="#S" transform="matrix(1,0,0,1,2005,961.0232751993149) translate(204.6865234375 62.9580078125)"/><use xlink:href="#R" transform="matrix(1,0,0,1,2005,961.0232751993149) translate(238.697265625 62.9580078125)"/><use xlink:href="#r" transform="matrix(1,0,0,1,2005,961.0232751993149) translate(304.4716796875 62.9580078125)"/><use xlink:href="#y" transform="matrix(1,0,0,1,2005,961.0232751993149) translate(338.1650390625 62.9580078125)"/><use xlink:href="#T" transform="matrix(1,0,0,1,2005,961.0232751993149) translate(352.9677734375 62.9580078125)"/><use xlink:href="#z" transform="matrix(1,0,0,1,2005,961.0232751993149) translate(442.5205078125 62.9580078125)"/><use xlink:href="#U" transform="matrix(1,0,0,1,2005,961.0232751993149) translate(482.142578125 62.9580078125)"/><use xlink:href="#J" transform="matrix(1,0,0,1,2005,961.0232751993149) translate(584.771484375 62.9580078125)"/><use xlink:href="#E" transform="matrix(1,0,0,1,2005,961.0232751993149) translate(645.7978515625 62.9580078125)"/><use xlink:href="#F" transform="matrix(1,0,0,1,2005,961.0232751993149) translate(671.048828125 62.9580078125)"/><use xlink:href="#V" transform="matrix(1,0,0,1,2005,961.0232751993149) translate(711.0009765625 62.9580078125)"/><use xlink:href="#u" transform="matrix(1,0,0,1,2005,961.0232751993149) translate(0 100.70878906249999)"/></g><path d="M1960 1174.5c0 22.1-17.9 40-40 40s-40-17.9-40-40c0-22.08 17.9-40 40-40s40 17.92 40 40z" stroke="#000" stroke-width="2" fill="#fff"/><g><use xlink:href="#e" transform="matrix(1,0,0,1,1885,1139.5085486368148) translate(21.8095703125 44.875)"/></g><path d="M2000 1122.02a6 6 0 0 1 6-6h986.47a6 6 0 0 1 6 6V1227a6 6 0 0 1-6 6H2006a6 6 0 0 1-6-6z" fill="none"/><g><use xlink:href="#W" transform="matrix(1,0,0,1,2005,1121.0232751993149) translate(0 25.207226562500004)"/><use xlink:href="#O" transform="matrix(1,0,0,1,2005,1121.0232751993149) translate(188.6015625 25.207226562500004)"/><use xlink:href="#X" transform="matrix(1,0,0,1,2005,1121.0232751993149) translate(230.318359375 25.207226562500004)"/><use xlink:href="#Q" transform="matrix(1,0,0,1,2005,1121.0232751993149) translate(0 62.9580078125)"/><use xlink:href="#R" transform="matrix(1,0,0,1,2005,1121.0232751993149) translate(138.912109375 62.9580078125)"/><use xlink:href="#p" transform="matrix(1,0,0,1,2005,1121.0232751993149) translate(204.6865234375 62.9580078125)"/><use xlink:href="#Y" transform="matrix(1,0,0,1,2005,1121.0232751993149) translate(242.328125 62.9580078125)"/><use xlink:href="#Z" transform="matrix(1,0,0,1,2005,1121.0232751993149) translate(319.134765625 62.9580078125)"/><use xlink:href="#aa" transform="matrix(1,0,0,1,2005,1121.0232751993149) translate(381.3037109375 62.9580078125)"/><use xlink:href="#ab" transform="matrix(1,0,0,1,2005,1121.0232751993149) translate(427.73046875 62.9580078125)"/><use xlink:href="#ac" transform="matrix(1,0,0,1,2005,1121.0232751993149) translate(512.611328125 62.9580078125)"/><use xlink:href="#y" transform="matrix(1,0,0,1,2005,1121.0232751993149) translate(661.42578125 62.9580078125)"/><use xlink:href="#T" transform="matrix(1,0,0,1,2005,1121.0232751993149) translate(676.228515625 62.9580078125)"/><use xlink:href="#p" transform="matrix(1,0,0,1,2005,1121.0232751993149) translate(765.78125 62.9580078125)"/><use xlink:href="#ad" transform="matrix(1,0,0,1,2005,1121.0232751993149) translate(803.4228515625 62.9580078125)"/><use xlink:href="#ae" transform="matrix(1,0,0,1,2005,1121.0232751993149) translate(0 100.70878906249999)"/><use xlink:href="#Z" transform="matrix(1,0,0,1,2005,1121.0232751993149) translate(150.794921875 100.70878906249999)"/><use xlink:href="#af" transform="matrix(1,0,0,1,2005,1121.0232751993149) translate(212.9638671875 100.70878906249999)"/><use xlink:href="#ag" transform="matrix(1,0,0,1,2005,1121.0232751993149) translate(276.427734375 100.70878906249999)"/><use xlink:href="#z" transform="matrix(1,0,0,1,2005,1121.0232751993149) translate(401.400390625 100.70878906249999)"/><use xlink:href="#p" transform="matrix(1,0,0,1,2005,1121.0232751993149) translate(441.0224609375 100.70878906249999)"/><use xlink:href="#q" transform="matrix(1,0,0,1,2005,1121.0232751993149) translate(478.6640625 100.70878906249999)"/><use xlink:href="#Z" transform="matrix(1,0,0,1,2005,1121.0232751993149) translate(570.654296875 100.70878906249999)"/><use xlink:href="#ah" transform="matrix(1,0,0,1,2005,1121.0232751993149) translate(632.8232421875 100.70878906249999)"/><use xlink:href="#ai" transform="matrix(1,0,0,1,2005,1121.0232751993149) translate(725.10546875 100.70878906249999)"/></g><path d="M1992.3 1286a6 6 0 0 1 6-6h1013.57a6 6 0 0 1 6 6v104.97a6 6 0 0 1-6 6H1998.3a6 6 0 0 1-6-6z" fill="none"/><g><use xlink:href="#aj" transform="matrix(1,0,0,1,1997.31298828125,1285) translate(0 25.207226562500004)"/><use xlink:href="#ak" transform="matrix(1,0,0,1,1997.31298828125,1285) translate(193.0068359375 25.207226562500004)"/><use xlink:href="#al" transform="matrix(1,0,0,1,1997.31298828125,1285) translate(253.5634765625 25.207226562500004)"/><use xlink:href="#y" transform="matrix(1,0,0,1,1997.31298828125,1285) translate(280.46484375 25.207226562500004)"/><use xlink:href="#am" transform="matrix(1,0,0,1,1997.31298828125,1285) translate(295.267578125 25.207226562500004)"/><use xlink:href="#Z" transform="matrix(1,0,0,1,1997.31298828125,1285) translate(336.248046875 25.207226562500004)"/><use xlink:href="#s" transform="matrix(1,0,0,1,1997.31298828125,1285) translate(398.4169921875 25.207226562500004)"/><use xlink:href="#an" transform="matrix(1,0,0,1,1997.31298828125,1285) translate(440.9462890625 25.207226562500004)"/><use xlink:href="#ao" transform="matrix(1,0,0,1,1997.31298828125,1285) translate(520.4951171875 25.207226562500004)"/><use xlink:href="#ap" transform="matrix(1,0,0,1,1997.31298828125,1285) translate(616.4716796875 25.207226562500004)"/><use xlink:href="#J" transform="matrix(1,0,0,1,1997.31298828125,1285) translate(769.89453125 25.207226562500004)"/><use xlink:href="#aq" transform="matrix(1,0,0,1,1997.31298828125,1285) translate(830.9208984375 25.207226562500004)"/><use xlink:href="#ar" transform="matrix(1,0,0,1,1997.31298828125,1285) translate(985.2197265625 25.207226562500004)"/><use xlink:href="#as" transform="matrix(1,0,0,1,1997.31298828125,1285) translate(0 62.9580078125)"/><use xlink:href="#E" transform="matrix(1,0,0,1,1997.31298828125,1285) translate(149.296875 62.9580078125)"/><use xlink:href="#F" transform="matrix(1,0,0,1,1997.31298828125,1285) translate(174.5478515625 62.9580078125)"/><use xlink:href="#at" transform="matrix(1,0,0,1,1997.31298828125,1285) translate(214.5 62.9580078125)"/><use xlink:href="#au" transform="matrix(1,0,0,1,1997.31298828125,1285) translate(309.9052734375 62.9580078125)"/><use xlink:href="#F" transform="matrix(1,0,0,1,1997.31298828125,1285) translate(485.6591796875 62.9580078125)"/><use xlink:href="#av" transform="matrix(1,0,0,1,1997.31298828125,1285) translate(525.611328125 62.9580078125)"/><use xlink:href="#y" transform="matrix(1,0,0,1,1997.31298828125,1285) translate(676.634765625 62.9580078125)"/><use xlink:href="#aw" transform="matrix(1,0,0,1,1997.31298828125,1285) translate(691.4375 62.9580078125)"/><use xlink:href="#ax" transform="matrix(1,0,0,1,1997.31298828125,1285) translate(831.2255859375 62.9580078125)"/><use xlink:href="#ay" transform="matrix(1,0,0,1,1997.31298828125,1285) translate(948.974609375 62.9580078125)"/><use xlink:href="#az" transform="matrix(1,0,0,1,1997.31298828125,1285) translate(0 100.70878906249999)"/><use xlink:href="#E" transform="matrix(1,0,0,1,1997.31298828125,1285) translate(134.9384765625 100.70878906249999)"/><use xlink:href="#F" transform="matrix(1,0,0,1,1997.31298828125,1285) translate(160.189453125 100.70878906249999)"/><use xlink:href="#aA" transform="matrix(1,0,0,1,1997.31298828125,1285) translate(200.1416015625 100.70878906249999)"/><use xlink:href="#aB" transform="matrix(1,0,0,1,1997.31298828125,1285) translate(351.787109375 100.70878906249999)"/><use xlink:href="#aC" transform="matrix(1,0,0,1,1997.31298828125,1285) translate(484.30078125 100.70878906249999)"/></g><defs><path d="M653-1490V0H466v-1314h-10L96-1047v-204l324-239h233" id="aD"/><path d="M646 20c-332 0-524-278-524-764 0-483 194-766 524-766s524 283 524 766c0 485-191 764-524 764zm0-166c218 0 341-220 341-598 0-380-123-601-341-601s-341 222-341 601c0 378 123 598 341 598" id="aE"/><g id="a"><use transform="matrix(0.0126953125,0,0,0.0126953125,0,0)" xlink:href="#aD"/><use transform="matrix(0.0126953125,0,0,0.0126953125,10.5751953125,0)" xlink:href="#aE"/></g><path d="M603 20c-253 0-434-161-469-399h188c31 132 124 231 281 231 227 0 367-207 367-568h-12c-80 122-211 199-367 199-257 0-469-206-469-493 0-278 200-505 506-500 245 4 520 158 520 706 0 527-208 824-545 824zm16-703c181 0 324-157 324-332 0-171-135-328-318-328-180 0-317 148-317 332 0 183 131 328 311 328" id="aF"/><use transform="matrix(0.0126953125,0,0,0.0126953125,0,0)" xlink:href="#aF" id="b"/><path d="M646 20c-249 0-524-159-524-708 0-524 209-822 547-822 250 0 431 161 467 395H950c-33-129-126-227-281-227-229 0-367 208-367 566h12c80-124 212-198 367-198 255 0 467 205 467 493 0 278-198 501-502 501zm0-167c179 0 318-148 318-334 0-182-133-328-313-328-181 0-322 156-322 330 0 176 134 332 317 332" id="aG"/><g id="c"><use transform="matrix(0.0126953125,0,0,0.0126953125,0,0)" xlink:href="#aD"/><use transform="matrix(0.0126953125,0,0,0.0126953125,10.5751953125,0)" xlink:href="#aG"/></g><use transform="matrix(0.0126953125,0,0,0.0126953125,0,0)" xlink:href="#aG" id="d"/><path d="M626 20c-262 0-458-168-468-396h184c12 133 134 229 284 229 180 0 311-137 311-326 0-192-136-335-323-335-92 0-196 33-255 78l-178-22 88-738h784v167H429l-51 435h8c61-51 160-87 263-87 273 0 474 211 474 499 0 286-210 496-497 496" id="aH"/><g id="e"><use transform="matrix(0.0126953125,0,0,0.0126953125,0,0)" xlink:href="#aD"/><use transform="matrix(0.0126953125,0,0,0.0126953125,10.5751953125,0)" xlink:href="#aH"/></g><path d="M154 0v-137l495-537c165-179 249-281 249-418 0-156-121-253-280-253-170 0-278 110-278 278H158c0-264 200-443 465-443 266 0 455 183 455 416 0 161-73 288-336 568L416-179v12h687V0H154" id="aI"/><g id="f"><use transform="matrix(0.0126953125,0,0,0.0126953125,0,0)" xlink:href="#aI"/><use transform="matrix(0.0126953125,0,0,0.0126953125,15.8564453125,0)" xlink:href="#aE"/></g><g id="g"><use transform="matrix(0.0126953125,0,0,0.0126953125,0,0)" xlink:href="#aD"/><use transform="matrix(0.0126953125,0,0,0.0126953125,10.5751953125,0)" xlink:href="#aI"/></g><path fill="#ffb86c" d="M715 0H502L69-1082h202c94 253 197 500 285 758 19 57 36 126 52 183 96-335 234-626 350-941h201" id="aJ"/><path fill="#ffb86c" d="M615-1102c343 0 484 203 482 560-1 347-147 562-488 562-336 0-475-219-479-562-4-349 156-560 485-560zm-8 989c240 0 301-180 301-429 0-245-55-427-290-427-236 0-299 181-299 427 0 243 61 429 288 429" id="aK"/><path fill="#ffb86c" d="M745-142h380V0H143v-142h422v-798H246v-142h499v940zM545-1292v-192h200v192H545" id="aL"/><path fill="#ffb86c" d="M865-914c-3-187-2-380-2-570h180v1261c0 76 1 155 6 223H877c-8-49-9-116-10-174h-5C801-44 708 26 530 26c-135 0-234-46-297-139s-95-232-95-419c0-377 131-566 392-566 176 0 271 63 335 184zm-286-51c-222 0-255 197-255 427 0 229 31 425 253 425 237 0 286-195 286-441 0-238-52-411-284-411" id="aM"/><g id="h"><use transform="matrix(0.008173828125000001,0,0,0.008173828125000001,0,0)" xlink:href="#aJ"/><use transform="matrix(0.008173828125000001,0,0,0.008173828125000001,10.045634765625001,0)" xlink:href="#aK"/><use transform="matrix(0.008173828125000001,0,0,0.008173828125000001,20.091269531250003,0)" xlink:href="#aL"/><use transform="matrix(0.008173828125000001,0,0,0.008173828125000001,30.136904296875002,0)" xlink:href="#aM"/></g><path fill="#e6e6e6" d="M671-1188l264-103 45 132-282 73 185 250-119 72-150-258-156 256-119-72 189-248-280-73 45-134 267 107-12-297h136" id="aN"/><path fill="#45a9f9" d="M1000-272c3 95 12 159 101 161 21 0 41-3 59-7V-6c-44 10-86 16-139 16-141 2-191-84-197-217h-6C748-76 648 20 446 20c-207 0-318-120-318-322 0-266 194-348 454-354l236-4c12-191-40-305-222-305-140 0-220 47-232 172l-188-17c33-204 181-292 423-292 255 0 401 118 401 364v466zm-683-27c0 109 63 184 175 182 166-3 259-96 306-217 24-65 20-120 20-200-232 7-501-28-501 235" id="aO"/><path fill="#45a9f9" d="M365-904c58-129 161-200 334-200 130 0 228 46 293 138s98 233 98 420c0 189-34 331-102 425S824 20 698 20c-170 0-275-64-336-184 0 55-3 116-9 164H179c5-68 6-147 6-223v-1261h180c-2 193 4 394-4 580h4zm283 791c221 0 256-197 256-427 0-229-34-425-254-425-236 0-285 195-285 441 0 237 53 411 283 411" id="aP"/><path fill="#45a9f9" d="M-5 220v-96h1238v96H-5" id="aQ"/><path fill="#45a9f9" d="M528 20c-247 0-343-132-343-381v-721h180v686c-4 177 45 284 224 277 194-8 279-136 279-336v-627h181c3 360-6 732 6 1082H885c-4-54-7-126-8-185h-3C809-64 714 20 528 20" id="aR"/><path fill="#45a9f9" d="M873-819c-18-114-119-146-250-146-163 0-245 50-245 151 0 151 170 148 294 185 182 54 388 94 388 320 0 240-189 325-439 329-245 4-410-69-454-268l159-31c24 133 136 168 295 165 144-2 270-31 270-171 0-164-195-160-331-202-167-52-350-87-350-299 0-218 173-315 413-313 220 2 373 77 412 260" id="aS"/><path fill="#45a9f9" d="M631 20c-350 0-501-215-501-562 0-355 162-560 502-560 250 0 399 118 446 323l-192 14c-23-124-109-196-262-196-242 0-305 171-305 415 1 245 61 427 304 427 151 0 248-77 267-215l190 12C1039-107 883 20 631 20" id="aT"/><path fill="#45a9f9" d="M839-1102c70 0 148 7 206 17v167c-112-18-268-36-363 15-129 69-208 203-208 395V0H294c-10-367 32-789-52-1082h171c21 75 41 161 48 250h5c67-152 152-270 373-270" id="aU"/><path fill="#bbb" d="M891-1484c-201 251-362 514-362 954 0 441 161 704 362 955H701C500 176 342-90 342-532c0-440 159-704 359-952h190" id="aV"/><path fill="#ffb86c" d="M1000-272c3 95 12 159 101 161 21 0 41-3 59-7V-6c-44 10-86 16-139 16-141 2-191-84-197-217h-6C748-76 648 20 446 20c-207 0-318-120-318-322 0-266 194-348 454-354l236-4c12-191-40-305-222-305-140 0-220 47-232 172l-188-17c33-204 181-292 423-292 255 0 401 118 401 364v466zm-683-27c0 109 63 184 175 182 166-3 259-96 306-217 24-65 20-120 20-200-232 7-501-28-501 235" id="aW"/><path fill="#ffb86c" d="M365-904c58-129 161-200 334-200 130 0 228 46 293 138s98 233 98 420c0 189-34 331-102 425S824 20 698 20c-170 0-275-64-336-184 0 55-3 116-9 164H179c5-68 6-147 6-223v-1261h180c-2 193 4 394-4 580h4zm283 791c221 0 256-197 256-427 0-229-34-425-254-425-236 0-285 195-285 441 0 237 53 411 283 411" id="aX"/><path fill="#ffb86c" d="M-5 220v-96h1238v96H-5" id="aY"/><path fill="#ffb86c" d="M682 16c-209 0-323-80-324-285v-671H190v-142h170l58-282h120v282h432v142H538v652c2 114 60 155 182 155 106 0 209-16 297-34v137C921-4 806 16 682 16" id="aZ"/><g id="i"><use transform="matrix(0.008173828125000001,0,0,0.008173828125000001,0,0)" xlink:href="#aN"/><use transform="matrix(0.008173828125000001,0,0,0.008173828125000001,10.045634765625001,0)" xlink:href="#aO"/><use transform="matrix(0.008173828125000001,0,0,0.008173828125000001,20.091269531250003,0)" xlink:href="#aP"/><use transform="matrix(0.008173828125000001,0,0,0.008173828125000001,30.136904296875002,0)" xlink:href="#aP"/><use transform="matrix(0.008173828125000001,0,0,0.008173828125000001,40.182539062500005,0)" xlink:href="#aQ"/><use transform="matrix(0.008173828125000001,0,0,0.008173828125000001,50.22817382812501,0)" xlink:href="#aP"/><use transform="matrix(0.008173828125000001,0,0,0.008173828125000001,60.27380859375001,0)" xlink:href="#aR"/><use transform="matrix(0.008173828125000001,0,0,0.008173828125000001,70.31944335937501,0)" xlink:href="#aS"/><use transform="matrix(0.008173828125000001,0,0,0.008173828125000001,80.36507812500001,0)" xlink:href="#aT"/><use transform="matrix(0.008173828125000001,0,0,0.008173828125000001,90.410712890625,0)" xlink:href="#aO"/><use transform="matrix(0.008173828125000001,0,0,0.008173828125000001,100.45634765625,0)" xlink:href="#aU"/><use transform="matrix(0.008173828125000001,0,0,0.008173828125000001,110.501982421875,0)" xlink:href="#aV"/><use transform="matrix(0.008173828125000001,0,0,0.008173828125000001,120.5476171875,0)" xlink:href="#aW"/><use transform="matrix(0.008173828125000001,0,0,0.008173828125000001,130.593251953125,0)" xlink:href="#aX"/><use transform="matrix(0.008173828125000001,0,0,0.008173828125000001,140.63888671875,0)" xlink:href="#aX"/><use transform="matrix(0.008173828125000001,0,0,0.008173828125000001,150.684521484375,0)" xlink:href="#aY"/><use transform="matrix(0.008173828125000001,0,0,0.008173828125000001,160.73015625000002,0)" xlink:href="#aZ"/></g><path fill="#bbb" d="M671-1188l264-103 45 132-282 73 185 250-119 72-150-258-156 256-119-72 189-248-280-73 45-134 267 107-12-297h136" id="ba"/><path fill="#bbb" d="M1000-272c3 95 12 159 101 161 21 0 41-3 59-7V-6c-44 10-86 16-139 16-141 2-191-84-197-217h-6C748-76 648 20 446 20c-207 0-318-120-318-322 0-266 194-348 454-354l236-4c12-191-40-305-222-305-140 0-220 47-232 172l-188-17c33-204 181-292 423-292 255 0 401 118 401 364v466zm-683-27c0 109 63 184 175 182 166-3 259-96 306-217 24-65 20-120 20-200-232 7-501-28-501 235" id="bb"/><path fill="#bbb" d="M365-904c58-129 161-200 334-200 130 0 228 46 293 138s98 233 98 420c0 189-34 331-102 425S824 20 698 20c-170 0-275-64-336-184 0 55-3 116-9 164H179c5-68 6-147 6-223v-1261h180c-2 193 4 394-4 580h4zm283 791c221 0 256-197 256-427 0-229-34-425-254-425-236 0-285 195-285 441 0 237 53 411 283 411" id="bc"/><path fill="#bbb" d="M259 363l169-662h265L382 363H259" id="bd"/><g id="j"><use transform="matrix(0.008173828125000001,0,0,0.008173828125000001,0,0)" xlink:href="#ba"/><use transform="matrix(0.008173828125000001,0,0,0.008173828125000001,10.045634765625001,0)" xlink:href="#bb"/><use transform="matrix(0.008173828125000001,0,0,0.008173828125000001,20.091269531250003,0)" xlink:href="#bc"/><use transform="matrix(0.008173828125000001,0,0,0.008173828125000001,30.136904296875002,0)" xlink:href="#bc"/><use transform="matrix(0.008173828125000001,0,0,0.008173828125000001,40.182539062500005,0)" xlink:href="#bd"/></g><g id="k"><use transform="matrix(0.008173828125000001,0,0,0.008173828125000001,0,0)" xlink:href="#aJ"/><use transform="matrix(0.008173828125000001,0,0,0.008173828125000001,10.045634765625001,0)" xlink:href="#aK"/><use transform="matrix(0.008173828125000001,0,0,0.008173828125000001,20.091269531250003,0)" xlink:href="#aL"/><use transform="matrix(0.008173828125000001,0,0,0.008173828125000001,30.136904296875002,0)" xlink:href="#aM"/></g><path fill="#bbb" d="M865-914c-3-187-2-380-2-570h180v1261c0 76 1 155 6 223H877c-8-49-9-116-10-174h-5C801-44 708 26 530 26c-135 0-234-46-297-139s-95-232-95-419c0-377 131-566 392-566 176 0 271 63 335 184zm-286-51c-222 0-255 197-255 427 0 229 31 425 253 425 237 0 286-195 286-441 0-238-52-411-284-411" id="be"/><path fill="#bbb" d="M682 16c-209 0-323-80-324-285v-671H190v-142h170l58-282h120v282h432v142H538v652c2 114 60 155 182 155 106 0 209-16 297-34v137C921-4 806 16 682 16" id="bf"/><path fill="#bbb" d="M615-1102c343 0 484 203 482 560-1 347-147 562-488 562-336 0-475-219-479-562-4-349 156-560 485-560zm-8 989c240 0 301-180 301-429 0-245-55-427-290-427-236 0-299 181-299 427 0 243 61 429 288 429" id="bg"/><path fill="#bbb" d="M528-1484c201 248 357 511 357 952 0 442-156 709-357 957H336C537 174 700-89 700-530c0-440-163-703-364-954h192" id="bh"/><g id="l"><use transform="matrix(0.008173828125000001,0,0,0.008173828125000001,0,0)" xlink:href="#ba"/><use transform="matrix(0.008173828125000001,0,0,0.008173828125000001,10.045634765625001,0)" xlink:href="#be"/><use transform="matrix(0.008173828125000001,0,0,0.008173828125000001,20.091269531250003,0)" xlink:href="#bb"/><use transform="matrix(0.008173828125000001,0,0,0.008173828125000001,30.136904296875002,0)" xlink:href="#bf"/><use transform="matrix(0.008173828125000001,0,0,0.008173828125000001,40.182539062500005,0)" xlink:href="#bg"/><use transform="matrix(0.008173828125000001,0,0,0.008173828125000001,50.22817382812501,0)" xlink:href="#bh"/></g><path fill="#6f7681" d="M148-1120c216-7 379-89 463-229h166v1204h353V0H157v-145h439v-1021c-79 124-254 184-448 194v-148" id="bi"/><use transform="matrix(0.008173828125000001,0,0,0.008173828125000001,0,0)" xlink:href="#bi" id="m"/><path d="M180 0v-1490h528c311 0 458 177 458 395 0 191-114 278-244 313v14c139 9 302 137 302 371 0 225-148 397-499 397H180zm190-168h350c232 0 321-102 321-231 0-149-120-277-311-277H370v508zm0-668h328c160 0 286-101 286-255 0-129-87-231-280-231H370v486" id="bj"/><path d="M763 24c-353 0-583-224-583-531v-983h190v968c0 214 149 370 393 370 243 0 391-156 391-370v-968h190v983c0 307-230 531-581 531" id="bk"/><path d="M657 26c-323 0-524-166-541-416h195c15 169 171 246 346 246 202 0 356-106 356-265 5-203-294-238-475-293-239-73-380-191-380-389 0-252 224-419 512-419 294 0 499 171 508 396H992c-17-145-151-228-328-228-193 0-321 102-321 242 0 156 175 211 284 241l149 41c160 44 422 134 422 412 0 244-197 432-541 432" id="bl"/><path d="M783 20c-382 0-661-292-661-764 0-473 279-766 661-766 302 0 548 182 601 489h-190c-42-204-217-313-411-313-268 0-476 208-476 590 0 381 209 588 476 588 195 0 369-110 411-313h190c-52 303-296 489-601 489" id="bm"/><path d="M784 20c-382 0-662-292-662-764 0-473 280-766 662-766s660 293 660 766c0 472-278 764-660 764zm0-176c266 0 475-207 475-588 0-383-209-590-475-590-268 0-477 208-477 590 0 380 209 588 477 588" id="bn"/><g id="o"><use transform="matrix(0.0126953125,0,0,0.0126953125,0,0)" xlink:href="#bj"/><use transform="matrix(0.0126953125,0,0,0.0126953125,17.01171875,0)" xlink:href="#bk"/><use transform="matrix(0.0126953125,0,0,0.0126953125,36.359375,0)" xlink:href="#bl"/><use transform="matrix(0.0126953125,0,0,0.0126953125,53.041015625,0)" xlink:href="#bm"/><use transform="matrix(0.0126953125,0,0,0.0126953125,72.033203125,0)" xlink:href="#bn"/></g><path d="M180 0v-1490h908v168H370v486h669v168H370v500h727V0H180" id="bo"/><path d="M180 0v-1490h190v1322h690V0H180" id="bp"/><g id="p"><use transform="matrix(0.0126953125,0,0,0.0126953125,0,0)" xlink:href="#bo"/><use transform="matrix(0.0126953125,0,0,0.0126953125,15.6279296875,0)" xlink:href="#bp"/></g><path d="M600 0L52-1490h200c166 485 304 806 458 1336 156-533 285-846 449-1336h202L819 0H600" id="bq"/><path d="M52 0l541-1490h220L1361 0h-200l-149-416H398L254 0H52zm404-582h497c-103-290-145-390-251-756-108 377-145 460-246 756" id="br"/><path d="M180 0v-1490h510c348 0 508 194 508 460 0 198-88 351-276 417L1256 0h-220L726-579c-117 2-238 0-356 1V0H180zm190-747h312c235 0 327-108 327-283 0-177-92-293-329-293H370v576" id="bs"/><g id="q"><use transform="matrix(0.0126953125,0,0,0.0126953125,0,0)" xlink:href="#bq"/><use transform="matrix(0.0126953125,0,0,0.0126953125,16.1611328125,0)" xlink:href="#br"/><use transform="matrix(0.0126953125,0,0,0.0126953125,34.099609375,0)" xlink:href="#bp"/><use transform="matrix(0.0126953125,0,0,0.0126953125,48.064453125,0)" xlink:href="#bn"/><use transform="matrix(0.0126953125,0,0,0.0126953125,67.9453125,0)" xlink:href="#bs"/></g><g id="r"><use transform="matrix(0.0126953125,0,0,0.0126953125,0,0)" xlink:href="#aD"/><use transform="matrix(0.0126953125,0,0,0.0126953125,10.5751953125,0)" xlink:href="#aH"/></g><path d="M180 0v-1490h224l606 953c40 63 108 177 176 312-27-437-7-821-13-1265h190V0h-226C860-448 622-778 356-1262c27 476 11 792 15 1262H180" id="bt"/><g id="s"><use transform="matrix(0.0126953125,0,0,0.0126953125,0,0)" xlink:href="#bo"/><use transform="matrix(0.0126953125,0,0,0.0126953125,15.6279296875,0)" xlink:href="#bt"/></g><g id="t"><use transform="matrix(0.0126953125,0,0,0.0126953125,0,0)" xlink:href="#br"/><use transform="matrix(0.0126953125,0,0,0.0126953125,17.9384765625,0)" xlink:href="#bj"/><use transform="matrix(0.0126953125,0,0,0.0126953125,34.9501953125,0)" xlink:href="#bj"/></g><path d="M96 279C273-86 346-350 346-607c0-292-95-659-250-974h175c150 246 258 650 258 974 0 297-91 602-258 886H96" id="bu"/><g id="v"><use transform="matrix(0.0126953125,0,0,0.0126953125,0,0)" xlink:href="#aD"/><use transform="matrix(0.0126953125,0,0,0.0126953125,10.5751953125,0)" xlink:href="#bu"/></g><path d="M645 0H180v-1490h484c435 0 692 280 692 742 0 466-257 748-711 748zM370-168h263c363 0 539-218 539-580 0-358-176-574-521-574H370v1154" id="bv"/><g id="w"><use transform="matrix(0.0126953125,0,0,0.0126953125,0,0)" xlink:href="#bk"/><use transform="matrix(0.0126953125,0,0,0.0126953125,19.34765625,0)" xlink:href="#bl"/><use transform="matrix(0.0126953125,0,0,0.0126953125,36.029296875,0)" xlink:href="#br"/><use transform="matrix(0.0126953125,0,0,0.0126953125,53.9677734375,0)" xlink:href="#bt"/><use transform="matrix(0.0126953125,0,0,0.0126953125,73.556640625,0)" xlink:href="#bv"/><use transform="matrix(0.0126953125,0,0,0.0126953125,92.3203125,0)" xlink:href="#bn"/></g><path d="M180 0v-1490h270l367 940c28 72 75 218 110 339 35-117 81-264 110-339l362-940h271V0h-187c2-448-5-837 7-1287-157 497-311 829-483 1287H842C666-458 514-784 354-1284c12 438 5 843 7 1284H180" id="bw"/><path d="M180 0v-1490h510c348 0 508 209 508 474 0 266-160 477-507 477H370V0H180zm190-706h312c236 0 327-133 327-310 0-176-91-307-329-307H370v617" id="bx"/><g id="x"><use transform="matrix(0.0126953125,0,0,0.0126953125,0,0)" xlink:href="#bm"/><use transform="matrix(0.0126953125,0,0,0.0126953125,18.9921875,0)" xlink:href="#bn"/><use transform="matrix(0.0126953125,0,0,0.0126953125,38.873046875,0)" xlink:href="#bw"/><use transform="matrix(0.0126953125,0,0,0.0126953125,62.359375,0)" xlink:href="#bx"/><use transform="matrix(0.0126953125,0,0,0.0126953125,77.0478515625,0)" xlink:href="#br"/><use transform="matrix(0.0126953125,0,0,0.0126953125,94.986328125,0)" xlink:href="#bs"/><use transform="matrix(0.0126953125,0,0,0.0126953125,111.71875,0)" xlink:href="#br"/><use transform="matrix(0.0126953125,0,0,0.0126953125,129.6572265625,0)" xlink:href="#bv"/><use transform="matrix(0.0126953125,0,0,0.0126953125,148.4208984375,0)" xlink:href="#bn"/><use transform="matrix(0.0126953125,0,0,0.0126953125,168.3017578125,0)" xlink:href="#bs"/></g><path d="M128 359l88-567h206L266 359H128" id="by"/><use transform="matrix(0.0126953125,0,0,0.0126953125,0,0)" xlink:href="#by" id="y"/><g id="z"><use transform="matrix(0.0126953125,0,0,0.0126953125,0,0)" xlink:href="#bo"/><use transform="matrix(0.0126953125,0,0,0.0126953125,15.6279296875,0)" xlink:href="#bl"/></g><path d="M174-520v-126l944-476v196L406-588v12l712 338v194" id="bz"/><use transform="matrix(0.0126953125,0,0,0.0126953125,0,0)" xlink:href="#bz" id="A"/><path d="M1181-520L237-44v-194l712-338v-12L237-926v-196l944 476v126" id="bA"/><use transform="matrix(0.0126953125,0,0,0.0126953125,0,0)" xlink:href="#bA" id="B"/><use transform="matrix(0.0126953125,0,0,0.0126953125,0,0)" xlink:href="#bn" id="C"/><path d="M370-1490V0H180v-1490h190" id="bB"/><path d="M789 20c-398 0-667-293-667-764 0-473 273-766 655-766 315 0 558 198 612 487h-196c-61-191-204-311-415-311-262 0-471 207-471 590 0 380 208 588 482 588 249 0 420-165 425-427H828v-166h572v163c0 370-256 606-611 606" id="bC"/><g id="D"><use transform="matrix(0.0126953125,0,0,0.0126953125,0,0)" xlink:href="#bB"/><use transform="matrix(0.0126953125,0,0,0.0126953125,6.982421875,0)" xlink:href="#bC"/><use transform="matrix(0.0126953125,0,0,0.0126953125,26.380859375,0)" xlink:href="#bk"/><use transform="matrix(0.0126953125,0,0,0.0126953125,45.220703125,0)" xlink:href="#br"/><use transform="matrix(0.0126953125,0,0,0.0126953125,63.1591796875,0)" xlink:href="#bp"/></g><use transform="matrix(0.0126953125,0,0,0.0126953125,0,0)" xlink:href="#br" id="E"/><g id="F"><use transform="matrix(0.0126953125,0,0,0.0126953125,0,0)" xlink:href="#bp"/><use transform="matrix(0.0126953125,0,0,0.0126953125,14.701171875,0)" xlink:href="#br"/></g><path d="M130 0v-134l666-991c45-67 96-135 147-202-269 9-546 3-821 5v-168h1036v136L502-379c-49 72-103 145-157 216 268-9 546-3 821-5V0H130" id="bD"/><g id="G"><use transform="matrix(0.0126953125,0,0,0.0126953125,0,0)" xlink:href="#bs"/><use transform="matrix(0.0126953125,0,0,0.0126953125,16.732421875,0)" xlink:href="#br"/><use transform="matrix(0.0126953125,0,0,0.0126953125,34.6708984375,0)" xlink:href="#bB"/><use transform="matrix(0.0126953125,0,0,0.0126953125,41.6533203125,0)" xlink:href="#bD"/></g><g id="H"><use transform="matrix(0.0126953125,0,0,0.0126953125,0,0)" xlink:href="#bx"/><use transform="matrix(0.0126953125,0,0,0.0126953125,16.60546875,0)" xlink:href="#bk"/><use transform="matrix(0.0126953125,0,0,0.0126953125,35.953125,0)" xlink:href="#bo"/><use transform="matrix(0.0126953125,0,0,0.0126953125,51.5810546875,0)" xlink:href="#bl"/></g><path d="M600 0v-610L52-1490h220l295 481c50 82 90 150 130 243 40-96 80-164 128-243l294-481h219L790-610V0H600" id="bE"/><g id="I"><use transform="matrix(0.0126953125,0,0,0.0126953125,0,0)" xlink:href="#bw"/><use transform="matrix(0.0126953125,0,0,0.0126953125,23.486328125,0)" xlink:href="#br"/><use transform="matrix(0.0126953125,0,0,0.0126953125,39.5078125,0)" xlink:href="#bE"/><use transform="matrix(0.0126953125,0,0,0.0126953125,56.2783203125,0)" xlink:href="#bn"/><use transform="matrix(0.0126953125,0,0,0.0126953125,76.1591796875,0)" xlink:href="#bs"/></g><g id="J"><use transform="matrix(0.0126953125,0,0,0.0126953125,0,0)" xlink:href="#bq"/><use transform="matrix(0.0126953125,0,0,0.0126953125,17.0625,0)" xlink:href="#bn"/><use transform="matrix(0.0126953125,0,0,0.0126953125,36.0673828125,0)" xlink:href="#bE"/></g><g id="K"><use transform="matrix(0.0126953125,0,0,0.0126953125,0,0)" xlink:href="#br"/><use transform="matrix(0.0126953125,0,0,0.0126953125,17.9384765625,0)" xlink:href="#bp"/></g><path d="M798-719v166H144v-166h654" id="bF"/><g id="L"><use transform="matrix(0.0126953125,0,0,0.0126953125,0,0)" xlink:href="#bl"/><use transform="matrix(0.0126953125,0,0,0.0126953125,16.681640625,0)" xlink:href="#bk"/><use transform="matrix(0.0126953125,0,0,0.0126953125,36.029296875,0)" xlink:href="#bj"/><use transform="matrix(0.0126953125,0,0,0.0126953125,53.041015625,0)" xlink:href="#bF"/><use transform="matrix(0.0126953125,0,0,0.0126953125,64.1240234375,0)" xlink:href="#br"/><use transform="matrix(0.0126953125,0,0,0.0126953125,82.0625,0)" xlink:href="#bs"/><use transform="matrix(0.0126953125,0,0,0.0126953125,98.794921875,0)" xlink:href="#bj"/><use transform="matrix(0.0126953125,0,0,0.0126953125,115.806640625,0)" xlink:href="#bn"/><use transform="matrix(0.0126953125,0,0,0.0126953125,135.6875,0)" xlink:href="#bp"/></g><path d="M180 0v-1490h190v644h782v-644h190V0h-190v-678H370V0H180" id="bG"/><g id="M"><use transform="matrix(0.0126953125,0,0,0.0126953125,0,0)" xlink:href="#bv"/><use transform="matrix(0.0126953125,0,0,0.0126953125,18.763671875,0)" xlink:href="#bo"/><use transform="matrix(0.0126953125,0,0,0.0126953125,34.3916015625,0)" xlink:href="#bs"/><use transform="matrix(0.0126953125,0,0,0.0126953125,51.1240234375,0)" xlink:href="#bo"/><use transform="matrix(0.0126953125,0,0,0.0126953125,66.751953125,0)" xlink:href="#bm"/><use transform="matrix(0.0126953125,0,0,0.0126953125,85.744140625,0)" xlink:href="#bG"/><use transform="matrix(0.0126953125,0,0,0.0126953125,105.06640625,0)" xlink:href="#bn"/></g><path d="M98-1322v-168h1126v168H757V0H567v-1322H98" id="bH"/><path d="M295 13c-75 0-135-60-135-135s60-135 135-135 135 60 135 135S370 13 295 13" id="bI"/><g id="N"><use transform="matrix(0.0126953125,0,0,0.0126953125,0,0)" xlink:href="#br"/><use transform="matrix(0.0126953125,0,0,0.0126953125,17.0498046875,0)" xlink:href="#bm"/><use transform="matrix(0.0126953125,0,0,0.0126953125,36.0419921875,0)" xlink:href="#bH"/><use transform="matrix(0.0126953125,0,0,0.0126953125,52.8251953125,0)" xlink:href="#bk"/><use transform="matrix(0.0126953125,0,0,0.0126953125,71.6650390625,0)" xlink:href="#br"/><use transform="matrix(0.0126953125,0,0,0.0126953125,89.603515625,0)" xlink:href="#bp"/><use transform="matrix(0.0126953125,0,0,0.0126953125,104.3046875,0)" xlink:href="#bI"/><use transform="matrix(0.0126953125,0,0,0.0126953125,111.794921875,0)" xlink:href="#bv"/><use transform="matrix(0.0126953125,0,0,0.0126953125,129.669921875,0)" xlink:href="#br"/><use transform="matrix(0.0126953125,0,0,0.0126953125,145.3994140625,0)" xlink:href="#bH"/><use transform="matrix(0.0126953125,0,0,0.0126953125,161.408203125,0)" xlink:href="#bn"/></g><path d="M226-283v-166h904v166H226zm0-434v-166h904v166H226" id="bJ"/><g id="O"><use transform="matrix(0.0126953125,0,0,0.0126953125,0,0)" xlink:href="#bJ"/><use transform="matrix(0.0126953125,0,0,0.0126953125,17.2021484375,0)" xlink:href="#bJ"/></g><g id="P"><use transform="matrix(0.0126953125,0,0,0.0126953125,0,0)" xlink:href="#aD"/><use transform="matrix(0.0126953125,0,0,0.0126953125,10.5751953125,0)" xlink:href="#aG"/></g><g id="Q"><use transform="matrix(0.0126953125,0,0,0.0126953125,0,0)" xlink:href="#bm"/><use transform="matrix(0.0126953125,0,0,0.0126953125,18.9921875,0)" xlink:href="#bn"/><use transform="matrix(0.0126953125,0,0,0.0126953125,38.873046875,0)" xlink:href="#bw"/><use transform="matrix(0.0126953125,0,0,0.0126953125,62.359375,0)" xlink:href="#bx"/><use transform="matrix(0.0126953125,0,0,0.0126953125,77.0478515625,0)" xlink:href="#br"/><use transform="matrix(0.0126953125,0,0,0.0126953125,94.986328125,0)" xlink:href="#bs"/><use transform="matrix(0.0126953125,0,0,0.0126953125,111.71875,0)" xlink:href="#bn"/></g><g id="R"><use transform="matrix(0.0126953125,0,0,0.0126953125,0,0)" xlink:href="#bm"/><use transform="matrix(0.0126953125,0,0,0.0126953125,18.9921875,0)" xlink:href="#bn"/><use transform="matrix(0.0126953125,0,0,0.0126953125,38.873046875,0)" xlink:href="#bt"/></g><g id="S"><use transform="matrix(0.0126953125,0,0,0.0126953125,0,0)" xlink:href="#aD"/><use transform="matrix(0.0126953125,0,0,0.0126953125,10.5751953125,0)" xlink:href="#aG"/></g><g id="T"><use transform="matrix(0.0126953125,0,0,0.0126953125,0,0)" xlink:href="#bm"/><use transform="matrix(0.0126953125,0,0,0.0126953125,18.9921875,0)" xlink:href="#bn"/><use transform="matrix(0.0126953125,0,0,0.0126953125,38.873046875,0)" xlink:href="#bw"/><use transform="matrix(0.0126953125,0,0,0.0126953125,62.359375,0)" xlink:href="#bn"/></g><g id="U"><use transform="matrix(0.0126953125,0,0,0.0126953125,0,0)" xlink:href="#bw"/><use transform="matrix(0.0126953125,0,0,0.0126953125,23.486328125,0)" xlink:href="#bo"/><use transform="matrix(0.0126953125,0,0,0.0126953125,39.1142578125,0)" xlink:href="#bt"/><use transform="matrix(0.0126953125,0,0,0.0126953125,58.703125,0)" xlink:href="#bn"/><use transform="matrix(0.0126953125,0,0,0.0126953125,78.583984375,0)" xlink:href="#bs"/></g><path d="M784 20c-382 0-662-292-662-764 0-473 280-766 662-766s660 293 660 766c0 282-99 499-260 629l192 255h-198L1049-33C969 2 880 20 784 20zm-62-486h198l156 205c112-98 183-261 183-483 0-383-209-590-475-590-268 0-477 208-477 590 0 380 209 588 477 588 54 0 106-9 154-25" id="bK"/><g id="V"><use transform="matrix(0.0126953125,0,0,0.0126953125,0,0)" xlink:href="#bB"/><use transform="matrix(0.0126953125,0,0,0.0126953125,6.982421875,0)" xlink:href="#bD"/><use transform="matrix(0.0126953125,0,0,0.0126953125,22.4580078125,0)" xlink:href="#bK"/><use transform="matrix(0.0126953125,0,0,0.0126953125,42.3388671875,0)" xlink:href="#bk"/><use transform="matrix(0.0126953125,0,0,0.0126953125,61.6865234375,0)" xlink:href="#bB"/><use transform="matrix(0.0126953125,0,0,0.0126953125,68.6689453125,0)" xlink:href="#bo"/><use transform="matrix(0.0126953125,0,0,0.0126953125,84.296875,0)" xlink:href="#bs"/><use transform="matrix(0.0126953125,0,0,0.0126953125,101.029296875,0)" xlink:href="#bv"/><use transform="matrix(0.0126953125,0,0,0.0126953125,118.904296875,0)" xlink:href="#br"/></g><g id="W"><use transform="matrix(0.0126953125,0,0,0.0126953125,0,0)" xlink:href="#br"/><use transform="matrix(0.0126953125,0,0,0.0126953125,17.0498046875,0)" xlink:href="#bm"/><use transform="matrix(0.0126953125,0,0,0.0126953125,36.0419921875,0)" xlink:href="#bH"/><use transform="matrix(0.0126953125,0,0,0.0126953125,52.8251953125,0)" xlink:href="#bk"/><use transform="matrix(0.0126953125,0,0,0.0126953125,71.6650390625,0)" xlink:href="#br"/><use transform="matrix(0.0126953125,0,0,0.0126953125,89.603515625,0)" xlink:href="#bp"/><use transform="matrix(0.0126953125,0,0,0.0126953125,104.3046875,0)" xlink:href="#bI"/><use transform="matrix(0.0126953125,0,0,0.0126953125,111.794921875,0)" xlink:href="#bv"/><use transform="matrix(0.0126953125,0,0,0.0126953125,129.669921875,0)" xlink:href="#br"/><use transform="matrix(0.0126953125,0,0,0.0126953125,145.3994140625,0)" xlink:href="#bH"/><use transform="matrix(0.0126953125,0,0,0.0126953125,161.408203125,0)" xlink:href="#bn"/></g><g id="X"><use transform="matrix(0.0126953125,0,0,0.0126953125,0,0)" xlink:href="#aD"/><use transform="matrix(0.0126953125,0,0,0.0126953125,10.5751953125,0)" xlink:href="#aH"/></g><g id="Y"><use transform="matrix(0.0126953125,0,0,0.0126953125,0,0)" xlink:href="#bv"/><use transform="matrix(0.0126953125,0,0,0.0126953125,17.875,0)" xlink:href="#br"/><use transform="matrix(0.0126953125,0,0,0.0126953125,33.6044921875,0)" xlink:href="#bH"/><use transform="matrix(0.0126953125,0,0,0.0126953125,49.61328125,0)" xlink:href="#bn"/></g><g id="Z"><use transform="matrix(0.0126953125,0,0,0.0126953125,0,0)" xlink:href="#bK"/><use transform="matrix(0.0126953125,0,0,0.0126953125,19.880859375,0)" xlink:href="#bk"/><use transform="matrix(0.0126953125,0,0,0.0126953125,39.228515625,0)" xlink:href="#bo"/></g><g id="aa"><use transform="matrix(0.0126953125,0,0,0.0126953125,0,0)" xlink:href="#bw"/><use transform="matrix(0.0126953125,0,0,0.0126953125,23.486328125,0)" xlink:href="#bo"/></g><g id="ab"><use transform="matrix(0.0126953125,0,0,0.0126953125,0,0)" xlink:href="#bx"/><use transform="matrix(0.0126953125,0,0,0.0126953125,16.60546875,0)" xlink:href="#bB"/><use transform="matrix(0.0126953125,0,0,0.0126953125,23.587890625,0)" xlink:href="#bv"/><use transform="matrix(0.0126953125,0,0,0.0126953125,42.3515625,0)" xlink:href="#bo"/><use transform="matrix(0.0126953125,0,0,0.0126953125,57.9794921875,0)" xlink:href="#bt"/></g><g id="ac"><use transform="matrix(0.0126953125,0,0,0.0126953125,0,0)" xlink:href="#bo"/><use transform="matrix(0.0126953125,0,0,0.0126953125,15.6279296875,0)" xlink:href="#bt"/><use transform="matrix(0.0126953125,0,0,0.0126953125,35.216796875,0)" xlink:href="#bm"/><use transform="matrix(0.0126953125,0,0,0.0126953125,54.208984375,0)" xlink:href="#bn"/><use transform="matrix(0.0126953125,0,0,0.0126953125,73.3154296875,0)" xlink:href="#bH"/><use transform="matrix(0.0126953125,0,0,0.0126953125,90.0986328125,0)" xlink:href="#bs"/><use transform="matrix(0.0126953125,0,0,0.0126953125,106.8310546875,0)" xlink:href="#br"/><use transform="matrix(0.0126953125,0,0,0.0126953125,124.76953125,0)" xlink:href="#bs"/></g><g id="ad"><use transform="matrix(0.0126953125,0,0,0.0126953125,0,0)" xlink:href="#bm"/><use transform="matrix(0.0126953125,0,0,0.0126953125,18.9921875,0)" xlink:href="#bn"/><use transform="matrix(0.0126953125,0,0,0.0126953125,38.873046875,0)" xlink:href="#bw"/><use transform="matrix(0.0126953125,0,0,0.0126953125,62.359375,0)" xlink:href="#bx"/><use transform="matrix(0.0126953125,0,0,0.0126953125,77.0478515625,0)" xlink:href="#br"/><use transform="matrix(0.0126953125,0,0,0.0126953125,94.986328125,0)" xlink:href="#bs"/><use transform="matrix(0.0126953125,0,0,0.0126953125,111.71875,0)" xlink:href="#br"/><use transform="matrix(0.0126953125,0,0,0.0126953125,129.6572265625,0)" xlink:href="#bv"/><use transform="matrix(0.0126953125,0,0,0.0126953125,148.4208984375,0)" xlink:href="#bn"/><use transform="matrix(0.0126953125,0,0,0.0126953125,168.3017578125,0)" xlink:href="#bs"/></g><path d="M180 0v-1490h901v168H370v510h643v168H370V0H180" id="bL"/><g id="ae"><use transform="matrix(0.0126953125,0,0,0.0126953125,0,0)" xlink:href="#bB"/><use transform="matrix(0.0126953125,0,0,0.0126953125,6.982421875,0)" xlink:href="#bv"/><use transform="matrix(0.0126953125,0,0,0.0126953125,25.74609375,0)" xlink:href="#bo"/><use transform="matrix(0.0126953125,0,0,0.0126953125,41.3740234375,0)" xlink:href="#bt"/><use transform="matrix(0.0126953125,0,0,0.0126953125,60.962890625,0)" xlink:href="#bH"/><use transform="matrix(0.0126953125,0,0,0.0126953125,77.74609375,0)" xlink:href="#bB"/><use transform="matrix(0.0126953125,0,0,0.0126953125,84.728515625,0)" xlink:href="#bL"/><use transform="matrix(0.0126953125,0,0,0.0126953125,100.0771484375,0)" xlink:href="#bB"/><use transform="matrix(0.0126953125,0,0,0.0126953125,107.0595703125,0)" xlink:href="#bm"/><use transform="matrix(0.0126953125,0,0,0.0126953125,125.5439453125,0)" xlink:href="#br"/></g><g id="af"><use transform="matrix(0.0126953125,0,0,0.0126953125,0,0)" xlink:href="#bl"/><use transform="matrix(0.0126953125,0,0,0.0126953125,16.681640625,0)" xlink:href="#bn"/><use transform="matrix(0.0126953125,0,0,0.0126953125,36.5625,0)" xlink:href="#bt"/></g><g id="ag"><use transform="matrix(0.0126953125,0,0,0.0126953125,0,0)" xlink:href="#bB"/><use transform="matrix(0.0126953125,0,0,0.0126953125,6.982421875,0)" xlink:href="#bC"/><use transform="matrix(0.0126953125,0,0,0.0126953125,26.380859375,0)" xlink:href="#bk"/><use transform="matrix(0.0126953125,0,0,0.0126953125,45.220703125,0)" xlink:href="#br"/><use transform="matrix(0.0126953125,0,0,0.0126953125,63.1591796875,0)" xlink:href="#bp"/><use transform="matrix(0.0126953125,0,0,0.0126953125,77.8603515625,0)" xlink:href="#bo"/><use transform="matrix(0.0126953125,0,0,0.0126953125,93.48828125,0)" xlink:href="#bl"/><use transform="matrix(0.0126953125,0,0,0.0126953125,110.169921875,0)" xlink:href="#by"/></g><g id="ah"><use transform="matrix(0.0126953125,0,0,0.0126953125,0,0)" xlink:href="#bo"/><use transform="matrix(0.0126953125,0,0,0.0126953125,15.6279296875,0)" xlink:href="#bl"/><use transform="matrix(0.0126953125,0,0,0.0126953125,32.3095703125,0)" xlink:href="#bH"/><use transform="matrix(0.0126953125,0,0,0.0126953125,48.318359375,0)" xlink:href="#bn"/><use transform="matrix(0.0126953125,0,0,0.0126953125,67.3232421875,0)" xlink:href="#bE"/></g><g id="ai"><use transform="matrix(0.0126953125,0,0,0.0126953125,0,0)" xlink:href="#bj"/><use transform="matrix(0.0126953125,0,0,0.0126953125,17.01171875,0)" xlink:href="#bk"/><use transform="matrix(0.0126953125,0,0,0.0126953125,36.359375,0)" xlink:href="#bl"/><use transform="matrix(0.0126953125,0,0,0.0126953125,53.041015625,0)" xlink:href="#bm"/><use transform="matrix(0.0126953125,0,0,0.0126953125,71.525390625,0)" xlink:href="#br"/><use transform="matrix(0.0126953125,0,0,0.0126953125,89.4638671875,0)" xlink:href="#bt"/><use transform="matrix(0.0126953125,0,0,0.0126953125,109.052734375,0)" xlink:href="#bv"/><use transform="matrix(0.0126953125,0,0,0.0126953125,127.81640625,0)" xlink:href="#bn"/></g><path d="M545 20c-263 0-445-160-445-446v-80h190v80c0 182 102 279 255 279 152 0 254-97 254-279v-1064h190v1064c0 286-181 446-444 446" id="bM"/><g id="aj"><use transform="matrix(0.0126953125,0,0,0.0126953125,0,0)" xlink:href="#bm"/><use transform="matrix(0.0126953125,0,0,0.0126953125,18.9921875,0)" xlink:href="#bn"/><use transform="matrix(0.0126953125,0,0,0.0126953125,38.873046875,0)" xlink:href="#bw"/><use transform="matrix(0.0126953125,0,0,0.0126953125,62.359375,0)" xlink:href="#bx"/><use transform="matrix(0.0126953125,0,0,0.0126953125,78.96484375,0)" xlink:href="#bp"/><use transform="matrix(0.0126953125,0,0,0.0126953125,93.666015625,0)" xlink:href="#bo"/><use transform="matrix(0.0126953125,0,0,0.0126953125,109.2939453125,0)" xlink:href="#bM"/><use transform="matrix(0.0126953125,0,0,0.0126953125,124.134765625,0)" xlink:href="#bB"/><use transform="matrix(0.0126953125,0,0,0.0126953125,131.1171875,0)" xlink:href="#bv"/><use transform="matrix(0.0126953125,0,0,0.0126953125,148.9921875,0)" xlink:href="#br"/><use transform="matrix(0.0126953125,0,0,0.0126953125,166.9306640625,0)" xlink:href="#bv"/></g><g id="ak"><use transform="matrix(0.0126953125,0,0,0.0126953125,0,0)" xlink:href="#bp"/><use transform="matrix(0.0126953125,0,0,0.0126953125,13.96484375,0)" xlink:href="#bn"/><use transform="matrix(0.0126953125,0,0,0.0126953125,33.845703125,0)" xlink:href="#bC"/></g><use transform="matrix(0.0126953125,0,0,0.0126953125,0,0)" xlink:href="#bt" id="al"/><g id="am"><use transform="matrix(0.0126953125,0,0,0.0126953125,0,0)" xlink:href="#bE"/><use transform="matrix(0.0126953125,0,0,0.0126953125,15.7294921875,0)" xlink:href="#br"/></g><g id="an"><use transform="matrix(0.0126953125,0,0,0.0126953125,0,0)" xlink:href="#bm"/><use transform="matrix(0.0126953125,0,0,0.0126953125,18.484375,0)" xlink:href="#br"/><use transform="matrix(0.0126953125,0,0,0.0126953125,36.4228515625,0)" xlink:href="#bv"/><use transform="matrix(0.0126953125,0,0,0.0126953125,54.2978515625,0)" xlink:href="#br"/></g><g id="ao"><use transform="matrix(0.0126953125,0,0,0.0126953125,0,0)" xlink:href="#bt"/><use transform="matrix(0.0126953125,0,0,0.0126953125,19.5888671875,0)" xlink:href="#bk"/><use transform="matrix(0.0126953125,0,0,0.0126953125,38.9365234375,0)" xlink:href="#bo"/><use transform="matrix(0.0126953125,0,0,0.0126953125,54.564453125,0)" xlink:href="#bq"/><use transform="matrix(0.0126953125,0,0,0.0126953125,70.7255859375,0)" xlink:href="#br"/></g><g id="ap"><use transform="matrix(0.0126953125,0,0,0.0126953125,0,0)" xlink:href="#bB"/><use transform="matrix(0.0126953125,0,0,0.0126953125,6.982421875,0)" xlink:href="#bH"/><use transform="matrix(0.0126953125,0,0,0.0126953125,23.765625,0)" xlink:href="#bo"/><use transform="matrix(0.0126953125,0,0,0.0126953125,39.3935546875,0)" xlink:href="#bs"/><use transform="matrix(0.0126953125,0,0,0.0126953125,56.1259765625,0)" xlink:href="#br"/><use transform="matrix(0.0126953125,0,0,0.0126953125,73.17578125,0)" xlink:href="#bm"/><use transform="matrix(0.0126953125,0,0,0.0126953125,92.16796875,0)" xlink:href="#bB"/><use transform="matrix(0.0126953125,0,0,0.0126953125,99.150390625,0)" xlink:href="#bn"/><use transform="matrix(0.0126953125,0,0,0.0126953125,119.03125,0)" xlink:href="#bt"/><use transform="matrix(0.0126953125,0,0,0.0126953125,138.6201171875,0)" xlink:href="#by"/></g><g id="aq"><use transform="matrix(0.0126953125,0,0,0.0126953125,0,0)" xlink:href="#bx"/><use transform="matrix(0.0126953125,0,0,0.0126953125,14.6884765625,0)" xlink:href="#br"/><use transform="matrix(0.0126953125,0,0,0.0126953125,32.626953125,0)" xlink:href="#bs"/><use transform="matrix(0.0126953125,0,0,0.0126953125,49.359375,0)" xlink:href="#bH"/><use transform="matrix(0.0126953125,0,0,0.0126953125,66.142578125,0)" xlink:href="#bB"/><use transform="matrix(0.0126953125,0,0,0.0126953125,73.125,0)" xlink:href="#bo"/><use transform="matrix(0.0126953125,0,0,0.0126953125,88.7529296875,0)" xlink:href="#bt"/><use transform="matrix(0.0126953125,0,0,0.0126953125,108.341796875,0)" xlink:href="#bv"/><use transform="matrix(0.0126953125,0,0,0.0126953125,127.10546875,0)" xlink:href="#bn"/></g><g id="ar"><use transform="matrix(0.0126953125,0,0,0.0126953125,0,0)" xlink:href="#bo"/><use transform="matrix(0.0126953125,0,0,0.0126953125,15.6279296875,0)" xlink:href="#bp"/></g><g id="as"><use transform="matrix(0.0126953125,0,0,0.0126953125,0,0)" xlink:href="#bx"/><use transform="matrix(0.0126953125,0,0,0.0126953125,16.60546875,0)" xlink:href="#bs"/><use transform="matrix(0.0126953125,0,0,0.0126953125,33.337890625,0)" xlink:href="#bn"/><use transform="matrix(0.0126953125,0,0,0.0126953125,53.21875,0)" xlink:href="#bj"/><use transform="matrix(0.0126953125,0,0,0.0126953125,70.23046875,0)" xlink:href="#bp"/><use transform="matrix(0.0126953125,0,0,0.0126953125,84.931640625,0)" xlink:href="#bo"/><use transform="matrix(0.0126953125,0,0,0.0126953125,100.5595703125,0)" xlink:href="#bw"/><use transform="matrix(0.0126953125,0,0,0.0126953125,124.0458984375,0)" xlink:href="#br"/></g><g id="at"><use transform="matrix(0.0126953125,0,0,0.0126953125,0,0)" xlink:href="#bw"/><use transform="matrix(0.0126953125,0,0,0.0126953125,23.486328125,0)" xlink:href="#bB"/><use transform="matrix(0.0126953125,0,0,0.0126953125,30.46875,0)" xlink:href="#bH"/><use transform="matrix(0.0126953125,0,0,0.0126953125,45.04296875,0)" xlink:href="#br"/><use transform="matrix(0.0126953125,0,0,0.0126953125,62.9814453125,0)" xlink:href="#bv"/><use transform="matrix(0.0126953125,0,0,0.0126953125,80.6025390625,0)" xlink:href="#by"/></g><g id="au"><use transform="matrix(0.0126953125,0,0,0.0126953125,0,0)" xlink:href="#bL"/><use transform="matrix(0.0126953125,0,0,0.0126953125,12.9873046875,0)" xlink:href="#br"/><use transform="matrix(0.0126953125,0,0,0.0126953125,30.037109375,0)" xlink:href="#bm"/><use transform="matrix(0.0126953125,0,0,0.0126953125,49.029296875,0)" xlink:href="#bB"/><use transform="matrix(0.0126953125,0,0,0.0126953125,56.01171875,0)" xlink:href="#bp"/><use transform="matrix(0.0126953125,0,0,0.0126953125,70.712890625,0)" xlink:href="#bB"/><use transform="matrix(0.0126953125,0,0,0.0126953125,77.6953125,0)" xlink:href="#bH"/><use transform="matrix(0.0126953125,0,0,0.0126953125,92.26953125,0)" xlink:href="#br"/><use transform="matrix(0.0126953125,0,0,0.0126953125,110.2080078125,0)" xlink:href="#bt"/><use transform="matrix(0.0126953125,0,0,0.0126953125,129.796875,0)" xlink:href="#bv"/><use transform="matrix(0.0126953125,0,0,0.0126953125,148.560546875,0)" xlink:href="#bn"/></g><g id="av"><use transform="matrix(0.0126953125,0,0,0.0126953125,0,0)" xlink:href="#bj"/><use transform="matrix(0.0126953125,0,0,0.0126953125,17.01171875,0)" xlink:href="#bk"/><use transform="matrix(0.0126953125,0,0,0.0126953125,36.359375,0)" xlink:href="#bl"/><use transform="matrix(0.0126953125,0,0,0.0126953125,53.041015625,0)" xlink:href="#bK"/><use transform="matrix(0.0126953125,0,0,0.0126953125,72.921875,0)" xlink:href="#bk"/><use transform="matrix(0.0126953125,0,0,0.0126953125,92.26953125,0)" xlink:href="#bo"/><use transform="matrix(0.0126953125,0,0,0.0126953125,107.8974609375,0)" xlink:href="#bv"/><use transform="matrix(0.0126953125,0,0,0.0126953125,125.7724609375,0)" xlink:href="#br"/></g><g id="aw"><use transform="matrix(0.0126953125,0,0,0.0126953125,0,0)" xlink:href="#bl"/><use transform="matrix(0.0126953125,0,0,0.0126953125,16.681640625,0)" xlink:href="#br"/><use transform="matrix(0.0126953125,0,0,0.0126953125,34.6201171875,0)" xlink:href="#bj"/><use transform="matrix(0.0126953125,0,0,0.0126953125,51.6318359375,0)" xlink:href="#bB"/><use transform="matrix(0.0126953125,0,0,0.0126953125,58.6142578125,0)" xlink:href="#bo"/><use transform="matrix(0.0126953125,0,0,0.0126953125,74.2421875,0)" xlink:href="#bt"/><use transform="matrix(0.0126953125,0,0,0.0126953125,93.8310546875,0)" xlink:href="#bv"/><use transform="matrix(0.0126953125,0,0,0.0126953125,112.5947265625,0)" xlink:href="#bn"/></g><g id="ax"><use transform="matrix(0.0126953125,0,0,0.0126953125,0,0)" xlink:href="#br"/><use transform="matrix(0.0126953125,0,0,0.0126953125,17.9384765625,0)" xlink:href="#bv"/><use transform="matrix(0.0126953125,0,0,0.0126953125,36.7021484375,0)" xlink:href="#bo"/><use transform="matrix(0.0126953125,0,0,0.0126953125,52.330078125,0)" xlink:href="#bw"/><use transform="matrix(0.0126953125,0,0,0.0126953125,75.81640625,0)" xlink:href="#br"/><use transform="matrix(0.0126953125,0,0,0.0126953125,93.7548828125,0)" xlink:href="#bl"/></g><g id="ay"><use transform="matrix(0.0126953125,0,0,0.0126953125,0,0)" xlink:href="#bK"/><use transform="matrix(0.0126953125,0,0,0.0126953125,19.880859375,0)" xlink:href="#bk"/><use transform="matrix(0.0126953125,0,0,0.0126953125,39.228515625,0)" xlink:href="#bo"/></g><g id="az"><use transform="matrix(0.0126953125,0,0,0.0126953125,0,0)" xlink:href="#bw"/><use transform="matrix(0.0126953125,0,0,0.0126953125,23.486328125,0)" xlink:href="#bo"/><use transform="matrix(0.0126953125,0,0,0.0126953125,39.1142578125,0)" xlink:href="#bt"/><use transform="matrix(0.0126953125,0,0,0.0126953125,58.703125,0)" xlink:href="#bn"/><use transform="matrix(0.0126953125,0,0,0.0126953125,78.583984375,0)" xlink:href="#bs"/><use transform="matrix(0.0126953125,0,0,0.0126953125,95.31640625,0)" xlink:href="#bo"/><use transform="matrix(0.0126953125,0,0,0.0126953125,110.9443359375,0)" xlink:href="#bl"/></g><g id="aA"><use transform="matrix(0.0126953125,0,0,0.0126953125,0,0)" xlink:href="#bB"/><use transform="matrix(0.0126953125,0,0,0.0126953125,6.982421875,0)" xlink:href="#bD"/><use transform="matrix(0.0126953125,0,0,0.0126953125,22.4580078125,0)" xlink:href="#bK"/><use transform="matrix(0.0126953125,0,0,0.0126953125,42.3388671875,0)" xlink:href="#bk"/><use transform="matrix(0.0126953125,0,0,0.0126953125,61.6865234375,0)" xlink:href="#bB"/><use transform="matrix(0.0126953125,0,0,0.0126953125,68.6689453125,0)" xlink:href="#bo"/><use transform="matrix(0.0126953125,0,0,0.0126953125,84.296875,0)" xlink:href="#bs"/><use transform="matrix(0.0126953125,0,0,0.0126953125,101.029296875,0)" xlink:href="#bv"/><use transform="matrix(0.0126953125,0,0,0.0126953125,118.904296875,0)" xlink:href="#br"/><use transform="matrix(0.0126953125,0,0,0.0126953125,136.8427734375,0)" xlink:href="#by"/></g><g id="aB"><use transform="matrix(0.0126953125,0,0,0.0126953125,0,0)" xlink:href="#bw"/><use transform="matrix(0.0126953125,0,0,0.0126953125,23.486328125,0)" xlink:href="#br"/><use transform="matrix(0.0126953125,0,0,0.0126953125,39.5078125,0)" xlink:href="#bE"/><use transform="matrix(0.0126953125,0,0,0.0126953125,56.2783203125,0)" xlink:href="#bn"/><use transform="matrix(0.0126953125,0,0,0.0126953125,76.1591796875,0)" xlink:href="#bs"/><use transform="matrix(0.0126953125,0,0,0.0126953125,92.8916015625,0)" xlink:href="#bo"/><use transform="matrix(0.0126953125,0,0,0.0126953125,108.51953125,0)" xlink:href="#bl"/></g><g id="aC"><use transform="matrix(0.0126953125,0,0,0.0126953125,0,0)" xlink:href="#bv"/><use transform="matrix(0.0126953125,0,0,0.0126953125,18.763671875,0)" xlink:href="#bo"/><use transform="matrix(0.0126953125,0,0,0.0126953125,34.3916015625,0)" xlink:href="#bs"/><use transform="matrix(0.0126953125,0,0,0.0126953125,51.1240234375,0)" xlink:href="#bo"/><use transform="matrix(0.0126953125,0,0,0.0126953125,66.751953125,0)" xlink:href="#bm"/><use transform="matrix(0.0126953125,0,0,0.0126953125,85.744140625,0)" xlink:href="#bG"/><use transform="matrix(0.0126953125,0,0,0.0126953125,105.06640625,0)" xlink:href="#br"/></g></defs></g></svg>