<svg xmlns="http://www.w3.org/2000/svg" xmlns:xlink="http://www.w3.org/1999/xlink" xmlns:lucid="lucid" width="2165.5" height="831"><g transform="translate(421 540)" lucid:page-tab-id="0_0"><path d="M-500-1000h2500V500H-500z" fill="#fff"/><path d="M200-534a6 6 0 0 1 6-6h423.3a6 6 0 0 1 6 6v57.16a6 6 0 0 1-6 6H206a6 6 0 0 1-6-6z" fill="none"/><use xlink:href="#a" transform="matrix(1,0,0,1,205,-535) translate(0 21.95095486111111)"/><use xlink:href="#b" transform="matrix(1,0,0,1,205,-535) translate(62.51085069444444 21.95095486111111)"/><use xlink:href="#c" transform="matrix(1,0,0,1,205,-535) translate(134.51605902777777 21.95095486111111)"/><use xlink:href="#d" transform="matrix(1,0,0,1,205,-535) translate(170.16059027777777 21.95095486111111)"/><use xlink:href="#e" transform="matrix(1,0,0,1,205,-535) translate(319.1514756944444 21.95095486111111)"/><use xlink:href="#f" transform="matrix(1,0,0,1,205,-535) translate(0 54.21657986111111)"/><path d="M0-394a6 6 0 0 1 6-6h101.96a6 6 0 0 1 6 6v57.16a6 6 0 0 1-6 6H6a6 6 0 0 1-6-6z" fill="none"/><use xlink:href="#g" transform="matrix(1,0,0,1,5,-395) translate(0 21.95095486111111)"/><use xlink:href="#h" transform="matrix(1,0,0,1,5,-395) translate(28.96050347222222 21.95095486111111)"/><use xlink:href="#f" transform="matrix(1,0,0,1,5,-395) translate(0 54.21657986111111)"/><path d="M199-505.42H62.98a6 6 0 0 0-6 6v80.92" stroke="#5e5e5e" stroke-width="2" fill="none"/><path d="M200-504.44h-1.03v-1.95H200z" stroke="#5e5e5e" stroke-width=".05" fill="#5e5e5e"/><path d="M56.98-403.24l-4.63-14.26h9.27z" stroke="#5e5e5e" stroke-width="2" fill="#5e5e5e"/><path d="M417.65-469.84v28.63a5.8 5.8 0 0 1-5.8 5.78 5.8 5.8 0 0 0-5.78 5.8v11.12" stroke="#5e5e5e" stroke-width="2" fill="none"/><path d="M418.62-469.8h-1.95v-1.04h1.95z" stroke="#5e5e5e" stroke-width=".05" fill="#5e5e5e"/><path d="M406.07-403.24l-4.63-14.26h9.27z" stroke="#5e5e5e" stroke-width="2" fill="#5e5e5e"/><path d="M342.65-394a6 6 0 0 1 6-6H463.5a6 6 0 0 1 6 6v57.16a6 6 0 0 1-6 6H348.65a6 6 0 0 1-6-6z" fill="none"/><use xlink:href="#i" transform="matrix(1,0,0,1,347.64605902777777,-395) translate(0 21.95095486111111)"/><use xlink:href="#f" transform="matrix(1,0,0,1,347.64605902777777,-395) translate(0 54.21657986111111)"/><path d="M636.3-505.42h135.35a6 6 0 0 1 6 6v128a6 6 0 0 0 6 6H901.5" stroke="#5e5e5e" stroke-width="2" fill="none"/><path d="M636.32-504.44h-1.03v-1.95h1.02z" stroke="#5e5e5e" stroke-width=".05" fill="#5e5e5e"/><path d="M916.76-365.42l-14.26 4.64v-9.27z" stroke="#5e5e5e" stroke-width="2" fill="#5e5e5e"/><path d="M920-394a6 6 0 0 1 6-6h139.04a6 6 0 0 1 6 6v57.16a6 6 0 0 1-6 6H926a6 6 0 0 1-6-6z" fill="none"/><use xlink:href="#j" transform="matrix(1,0,0,1,925,-395) translate(0 21.95095486111111)"/><use xlink:href="#h" transform="matrix(1,0,0,1,925,-395) translate(66.03732638888889 21.95095486111111)"/><use xlink:href="#f" transform="matrix(1,0,0,1,925,-395) translate(0 54.21657986111111)"/><path d="M-80-260c0 22.1-17.9 40-40 40s-40-17.9-40-40 17.9-40 40-40 40 17.9 40 40z" stroke="#000" stroke-width="2" fill="#fff"/><use xlink:href="#k" transform="matrix(1,0,0,1,-155,-295) translate(23.47113715277778 43.40277777777778)"/><path d="M-120-218v52a6 6 0 0 1-6 6h-74.5" stroke="#5e5e5e" stroke-width="2" fill="none"/><path d="M-120-219l.97-.03v1.06h-1.94v-1.1z" stroke="#5e5e5e" stroke-width=".05" fill="#5e5e5e"/><path d="M-215.76-160l14.26-4.63v9.26z" stroke="#5e5e5e" stroke-width="2" fill="#5e5e5e"/><path d="M-220-160c0 22.1-17.9 40-40 40s-40-17.9-40-40 17.9-40 40-40 40 17.9 40 40z" stroke="#000" stroke-width="2" fill="#fff"/><use xlink:href="#l" transform="matrix(1,0,0,1,-295,-195) translate(28.126085069444443 43.40277777777778)"/><path d="M-260-118v42a6 6 0 0 1-6 6h-68a6 6 0 0 0-6 6v24.5" stroke="#5e5e5e" stroke-width="2" fill="none"/><path d="M-260-119l.98-.03v1.06h-1.96v-1.1z" stroke="#5e5e5e" stroke-width=".05" fill="#5e5e5e"/><path d="M-340-24.24l-4.63-14.26h9.26z" stroke="#5e5e5e" stroke-width="2" fill="#5e5e5e"/><path d="M-300 20c0 22.1-17.9 40-40 40s-40-17.9-40-40 17.9-40 40-40 40 17.9 40 40z" stroke="#000" stroke-width="2" fill="#fff"/><use xlink:href="#m" transform="matrix(1,0,0,1,-375,-15) translate(28.223741319444443 43.40277777777778)"/><path d="M-241.72-122.33v44.16a6 6 0 0 0 6 6H-186a6 6 0 0 1 6 6v26.67" stroke="#5e5e5e" stroke-width="2" fill="none"/><path d="M-240.74-122.3h-1.95v-.55l.36-.14 1.6-.88z" stroke="#5e5e5e" stroke-width=".05" fill="#5e5e5e"/><path d="M-180-24.24l-4.63-14.26h9.26z" stroke="#5e5e5e" stroke-width="2" fill="#5e5e5e"/><path d="M-140 20c0 22.1-17.9 40-40 40s-40-17.9-40-40 17.9-40 40-40 40 17.9 40 40z" stroke="#000" stroke-width="2" fill="#fff"/><use xlink:href="#n" transform="matrix(1,0,0,1,-215,-15) translate(28.10980902777778 43.40277777777778)"/><path d="M-111.16-219v53a6 6 0 0 0 6 6h85.66" stroke="#5e5e5e" stroke-width="2" fill="none"/><path d="M-110.18-218.97h-1.95v-.8h.15l1.8-.5z" stroke="#5e5e5e" stroke-width=".05" fill="#5e5e5e"/><path d="M-4.24-160l-14.26 4.63v-9.26z" stroke="#5e5e5e" stroke-width="2" fill="#5e5e5e"/><path d="M80-160c0 22.1-17.9 40-40 40S0-137.9 0-160s17.9-40 40-40 40 17.9 40 40z" stroke="#000" stroke-width="2" fill="#fff"/><use xlink:href="#o" transform="matrix(1,0,0,1,5,-195) translate(21.214192708333336 43.40277777777778)"/><path d="M0 20c0 22.1-17.9 40-40 40s-40-17.9-40-40 17.9-40 40-40S0-2.1 0 20z" stroke="#000" stroke-width="2" fill="#fff"/><use xlink:href="#p" transform="matrix(1,0,0,1,-75,-15) translate(24.192708333333336 43.40277777777778)"/><path d="M40-118v42.35a6 6 0 0 1-6 6h-75.43a6 6 0 0 0-6 6v24.85" stroke="#5e5e5e" stroke-width="2" fill="none"/><path d="M40-119l.98-.03v1.06h-1.95v-1.1z" stroke="#5e5e5e" stroke-width=".05" fill="#5e5e5e"/><path d="M-47.43-23.53l-4.63-14.27h9.27z" stroke="#5e5e5e" stroke-width="2" fill="#5e5e5e"/><path d="M540-260c0 22.1-17.9 40-40 40s-40-17.9-40-40 17.9-40 40-40 40 17.9 40 40z" stroke="#000" stroke-width="2" fill="#fff"/><use xlink:href="#k" transform="matrix(1,0,0,1,465,-295) translate(23.47113715277778 43.40277777777778)"/><path d="M500-218v52a6 6 0 0 1-6 6h-74.5" stroke="#5e5e5e" stroke-width="2" fill="none"/><path d="M500-219l.98-.03v1.06h-1.96v-1.1z" stroke="#5e5e5e" stroke-width=".05" fill="#5e5e5e"/><path d="M404.24-160l14.26-4.63v9.26z" stroke="#5e5e5e" stroke-width="2" fill="#5e5e5e"/><path d="M400-160c0 22.1-17.9 40-40 40s-40-17.9-40-40 17.9-40 40-40 40 17.9 40 40z" stroke="#000" stroke-width="2" fill="#fff"/><use xlink:href="#l" transform="matrix(1,0,0,1,325,-195) translate(28.126085069444443 43.40277777777778)"/><path d="M360-118v42a6 6 0 0 1-6 6h-68a6 6 0 0 0-6 6v24.5" stroke="#5e5e5e" stroke-width="2" fill="none"/><path d="M360-119l.98-.03v1.06h-1.96v-1.1z" stroke="#5e5e5e" stroke-width=".05" fill="#5e5e5e"/><path d="M280-24.24l-4.63-14.26h9.26z" stroke="#5e5e5e" stroke-width="2" fill="#5e5e5e"/><path d="M320 20c0 22.1-17.9 40-40 40s-40-17.9-40-40 17.9-40 40-40 40 17.9 40 40z" stroke="#000" stroke-width="2" fill="#fff"/><use xlink:href="#m" transform="matrix(1,0,0,1,245,-15) translate(28.223741319444443 43.40277777777778)"/><path d="M378.3-122.33v44.16a6 6 0 0 0 6 6H434a6 6 0 0 1 6 6v26.67" stroke="#5e5e5e" stroke-width="2" fill="none"/><path d="M379.26-122.3h-1.95v-.55l.36-.14 1.6-.88z" stroke="#5e5e5e" stroke-width=".05" fill="#5e5e5e"/><path d="M440-24.24l-4.63-14.26h9.26z" stroke="#5e5e5e" stroke-width="2" fill="#5e5e5e"/><path d="M480 20c0 22.1-17.9 40-40 40s-40-17.9-40-40 17.9-40 40-40 40 17.9 40 40z" stroke="#000" stroke-width="2" fill="#fff"/><use xlink:href="#n" transform="matrix(1,0,0,1,405,-15) translate(28.10980902777778 43.40277777777778)"/><path d="M508.84-219v53a6 6 0 0 0 6 6h85.66" stroke="#5e5e5e" stroke-width="2" fill="none"/><path d="M509.82-218.97h-1.95v-.8h.15l1.8-.5z" stroke="#5e5e5e" stroke-width=".05" fill="#5e5e5e"/><path d="M615.76-160l-14.26 4.63v-9.26z" stroke="#5e5e5e" stroke-width="2" fill="#5e5e5e"/><path d="M700-160c0 22.1-17.9 40-40 40s-40-17.9-40-40 17.9-40 40-40 40 17.9 40 40z" stroke="#000" stroke-width="2" fill="#fff"/><use xlink:href="#o" transform="matrix(1,0,0,1,625,-195) translate(21.214192708333336 43.40277777777778)"/><path d="M620 20c0 22.1-17.9 40-40 40s-40-17.9-40-40 17.9-40 40-40 40 17.9 40 40z" stroke="#000" stroke-width="2" fill="#fff"/><use xlink:href="#p" transform="matrix(1,0,0,1,545,-15) translate(24.192708333333336 43.40277777777778)"/><path d="M660-118v42.35a6 6 0 0 1-6 6h-75.43a6 6 0 0 0-6 6v24.85" stroke="#5e5e5e" stroke-width="2" fill="none"/><path d="M660-119l.98-.03v1.06H659v-1.1z" stroke="#5e5e5e" stroke-width=".05" fill="#5e5e5e"/><path d="M572.57-23.53l-4.63-14.27h9.27z" stroke="#5e5e5e" stroke-width="2" fill="#5e5e5e"/><path d="M1160-260c0 22.1-17.9 40-40 40s-40-17.9-40-40 17.9-40 40-40 40 17.9 40 40z" stroke="#000" stroke-width="2" fill="#fff"/><use xlink:href="#k" transform="matrix(1,0,0,1,1085,-295) translate(23.47113715277778 43.40277777777778)"/><path d="M1120-218v52a6 6 0 0 1-6 6h-74.5" stroke="#5e5e5e" stroke-width="2" fill="none"/><path d="M1120-219l.97-.03v1.06h-1.94v-1.1z" stroke="#5e5e5e" stroke-width=".05" fill="#5e5e5e"/><path d="M1024.24-160l14.26-4.63v9.26z" stroke="#5e5e5e" stroke-width="2" fill="#5e5e5e"/><path d="M1020-160c0 22.1-17.9 40-40 40s-40-17.9-40-40 17.9-40 40-40 40 17.9 40 40z" stroke="#000" stroke-width="2" fill="#fff"/><use xlink:href="#l" transform="matrix(1,0,0,1,945,-195) translate(28.126085069444443 43.40277777777778)"/><path d="M980-118v42a6 6 0 0 1-6 6h-68a6 6 0 0 0-6 6v24.5" stroke="#5e5e5e" stroke-width="2" fill="none"/><path d="M980-119l.98-.03v1.06H979v-1.1z" stroke="#5e5e5e" stroke-width=".05" fill="#5e5e5e"/><path d="M900-24.24l-4.63-14.26h9.26z" stroke="#5e5e5e" stroke-width="2" fill="#5e5e5e"/><path d="M940 20c0 22.1-17.9 40-40 40s-40-17.9-40-40 17.9-40 40-40 40 17.9 40 40z" stroke="#000" stroke-width="2" fill="#fff"/><use xlink:href="#m" transform="matrix(1,0,0,1,865,-15) translate(28.223741319444443 43.40277777777778)"/><path d="M998.3-122.33v44.16a6 6 0 0 0 6 6h49.7a6 6 0 0 1 6 6v26.67" stroke="#5e5e5e" stroke-width="2" fill="none"/><path d="M999.26-122.3h-1.95v-.55l.36-.14 1.6-.88z" stroke="#5e5e5e" stroke-width=".05" fill="#5e5e5e"/><path d="M1060-24.24l-4.63-14.26h9.27z" stroke="#5e5e5e" stroke-width="2" fill="#5e5e5e"/><path d="M1100 20c0 22.1-17.9 40-40 40s-40-17.9-40-40 17.9-40 40-40 40 17.9 40 40z" stroke="#000" stroke-width="2" fill="#fff"/><use xlink:href="#n" transform="matrix(1,0,0,1,1025,-15) translate(28.10980902777778 43.40277777777778)"/><path d="M1128.84-219v53a6 6 0 0 0 6 6h85.66" stroke="#5e5e5e" stroke-width="2" fill="none"/><path d="M1129.82-218.97h-1.95v-.8h.15l1.8-.5z" stroke="#5e5e5e" stroke-width=".05" fill="#5e5e5e"/><path d="M1235.76-160l-14.26 4.63v-9.26z" stroke="#5e5e5e" stroke-width="2" fill="#5e5e5e"/><path d="M1320-160c0 22.1-17.9 40-40 40s-40-17.9-40-40 17.9-40 40-40 40 17.9 40 40z" stroke="#000" stroke-width="2" fill="#fff"/><use xlink:href="#o" transform="matrix(1,0,0,1,1245,-195) translate(21.214192708333336 43.40277777777778)"/><path d="M1240 20c0 22.1-17.9 40-40 40s-40-17.9-40-40 17.9-40 40-40 40 17.9 40 40z" stroke="#000" stroke-width="2" fill="#fff"/><use xlink:href="#p" transform="matrix(1,0,0,1,1165,-15) translate(24.192708333333336 43.40277777777778)"/><path d="M1280-118v42.35a6 6 0 0 1-6 6h-75.43a6 6 0 0 0-6 6v24.85" stroke="#5e5e5e" stroke-width="2" fill="none"/><path d="M1280-119l.97-.03v1.06h-1.94v-1.1z" stroke="#5e5e5e" stroke-width=".05" fill="#5e5e5e"/><path d="M1192.57-23.53l-4.63-14.27h9.27z" stroke="#5e5e5e" stroke-width="2" fill="#5e5e5e"/><path d="M-420 166a6 6 0 0 1 6-6h68a6 6 0 0 1 6 6v68a6 6 0 0 1-6 6h-68a6 6 0 0 1-6-6z" stroke="#000" stroke-width="2" fill="#fff"/><use xlink:href="#m" transform="matrix(1,0,0,1,-415,165) translate(28.223741319444443 43.40277777777778)"/><path d="M-338.2 166a6 6 0 0 1 6-6h68a6 6 0 0 1 6 6v68a6 6 0 0 1-6 6h-68a6 6 0 0 1-6-6z" stroke="#000" stroke-width="2" fill="#fff"/><use xlink:href="#l" transform="matrix(1,0,0,1,-333.1893304938078,165) translate(28.126085069444443 43.40277777777778)"/><path d="M-256.38 166a6 6 0 0 1 6-6h68a6 6 0 0 1 6 6v68a6 6 0 0 1-6 6h-68a6 6 0 0 1-6-6z" stroke="#000" stroke-width="2" fill="#fff"/><use xlink:href="#n" transform="matrix(1,0,0,1,-251.3786609876156,165) translate(28.10980902777778 43.40277777777778)"/><path d="M-174.57 166a6 6 0 0 1 6-6h68a6 6 0 0 1 6 6v68a6 6 0 0 1-6 6h-68a6 6 0 0 1-6-6z" stroke="#000" stroke-width="2" fill="#fff"/><use xlink:href="#k" transform="matrix(1,0,0,1,-169.5679914814234,165) translate(23.47113715277778 43.40277777777778)"/><path d="M-92.76 166a6 6 0 0 1 6-6h68a6 6 0 0 1 6 6v68a6 6 0 0 1-6 6h-68a6 6 0 0 1-6-6z" stroke="#000" stroke-width="2" fill="#fff"/><use xlink:href="#p" transform="matrix(1,0,0,1,-87.7573219752312,165) translate(24.192708333333336 43.40277777777778)"/><path d="M-10.95 166a6 6 0 0 1 6-6h68a6 6 0 0 1 6 6v68a6 6 0 0 1-6 6h-68a6 6 0 0 1-6-6z" stroke="#000" stroke-width="2" fill="#fff"/><use xlink:href="#o" transform="matrix(1,0,0,1,-5.946652469039009,165) translate(21.214192708333336 43.40277777777778)"/><path d="M200 166a6 6 0 0 1 6-6h68a6 6 0 0 1 6 6v68a6 6 0 0 1-6 6h-68a6 6 0 0 1-6-6z" stroke="#000" stroke-width="2" fill="#fff"/><use xlink:href="#k" transform="matrix(1,0,0,1,205,165) translate(23.47113715277778 43.40277777777778)"/><path d="M280 166a6 6 0 0 1 6-6h68a6 6 0 0 1 6 6v68a6 6 0 0 1-6 6h-68a6 6 0 0 1-6-6z" stroke="#000" stroke-width="2" fill="#fff"/><use xlink:href="#l" transform="matrix(1,0,0,1,285,165) translate(28.126085069444443 43.40277777777778)"/><path d="M360 166a6 6 0 0 1 6-6h68a6 6 0 0 1 6 6v68a6 6 0 0 1-6 6h-68a6 6 0 0 1-6-6z" stroke="#000" stroke-width="2" fill="#fff"/><use xlink:href="#m" transform="matrix(1,0,0,1,365,165) translate(28.223741319444443 43.40277777777778)"/><path d="M440 166a6 6 0 0 1 6-6h68a6 6 0 0 1 6 6v68a6 6 0 0 1-6 6h-68a6 6 0 0 1-6-6z" stroke="#000" stroke-width="2" fill="#fff"/><use xlink:href="#n" transform="matrix(1,0,0,1,445,165) translate(28.10980902777778 43.40277777777778)"/><path d="M520 166a6 6 0 0 1 6-6h68a6 6 0 0 1 6 6v68a6 6 0 0 1-6 6h-68a6 6 0 0 1-6-6z" stroke="#000" stroke-width="2" fill="#fff"/><use xlink:href="#o" transform="matrix(1,0,0,1,525,165) translate(21.214192708333336 43.40277777777778)"/><path d="M600 166a6 6 0 0 1 6-6h68a6 6 0 0 1 6 6v68a6 6 0 0 1-6 6h-68a6 6 0 0 1-6-6z" stroke="#000" stroke-width="2" fill="#fff"/><use xlink:href="#p" transform="matrix(1,0,0,1,605,165) translate(24.192708333333336 43.40277777777778)"/><path d="M880 166a6 6 0 0 1 6-6h68a6 6 0 0 1 6 6v68a6 6 0 0 1-6 6h-68a6 6 0 0 1-6-6z" stroke="#000" stroke-width="2" fill="#fff"/><use xlink:href="#m" transform="matrix(1,0,0,1,885,165) translate(28.223741319444443 43.40277777777778)"/><path d="M960 166a6 6 0 0 1 6-6h68a6 6 0 0 1 6 6v68a6 6 0 0 1-6 6h-68a6 6 0 0 1-6-6z" stroke="#000" stroke-width="2" fill="#fff"/><g><use xlink:href="#n" transform="matrix(1,0,0,1,965,165) translate(28.10980902777778 43.40277777777778)"/></g><path d="M1040 166a6 6 0 0 1 6-6h68a6 6 0 0 1 6 6v68a6 6 0 0 1-6 6h-68a6 6 0 0 1-6-6z" stroke="#000" stroke-width="2" fill="#fff"/><g><use xlink:href="#l" transform="matrix(1,0,0,1,1045,165) translate(28.126085069444443 43.40277777777778)"/></g><path d="M1120 166a6 6 0 0 1 6-6h68a6 6 0 0 1 6 6v68a6 6 0 0 1-6 6h-68a6 6 0 0 1-6-6z" stroke="#000" stroke-width="2" fill="#fff"/><g><use xlink:href="#p" transform="matrix(1,0,0,1,1125,165) translate(24.192708333333336 43.40277777777778)"/></g><path d="M1200 166a6 6 0 0 1 6-6h68a6 6 0 0 1 6 6v68a6 6 0 0 1-6 6h-68a6 6 0 0 1-6-6z" stroke="#000" stroke-width="2" fill="#fff"/><g><use xlink:href="#o" transform="matrix(1,0,0,1,1205,165) translate(21.214192708333336 43.40277777777778)"/></g><path d="M1280 166a6 6 0 0 1 6-6h68a6 6 0 0 1 6 6v68a6 6 0 0 1-6 6h-68a6 6 0 0 1-6-6z" stroke="#000" stroke-width="2" fill="#fff"/><g><use xlink:href="#k" transform="matrix(1,0,0,1,1285,165) translate(23.47113715277778 43.40277777777778)"/></g><defs><path d="M98-1322v-168h1126v168H757V0H567v-1322H98" id="q"/><path d="M180 0v-1490h510c348 0 508 194 508 460 0 198-88 351-276 417L1256 0h-220L726-579c-117 2-238 0-356 1V0H180zm190-747h312c235 0 327-108 327-283 0-177-92-293-329-293H370v576" id="r"/><path d="M180 0v-1490h908v168H370v486h669v168H370v500h727V0H180" id="s"/><path d="M657 26c-323 0-524-166-541-416h195c15 169 171 246 346 246 202 0 356-106 356-265 5-203-294-238-475-293-239-73-380-191-380-389 0-252 224-419 512-419 294 0 499 171 508 396H992c-17-145-151-228-328-228-193 0-321 102-321 242 0 156 175 211 284 241l149 41c160 44 422 134 422 412 0 244-197 432-541 432" id="t"/><g id="a"><use transform="matrix(0.010850694444444444,0,0,0.010850694444444444,0,0)" xlink:href="#q"/><use transform="matrix(0.010850694444444444,0,0,0.010850694444444444,14.344618055555555,0)" xlink:href="#r"/><use transform="matrix(0.010850694444444444,0,0,0.010850694444444444,28.645833333333332,0)" xlink:href="#s"/><use transform="matrix(0.010850694444444444,0,0,0.010850694444444444,42.00303819444444,0)" xlink:href="#t"/></g><path d="M370-1490V0H180v-1490h190" id="u"/><path d="M180 0v-1490h510c348 0 508 209 508 474 0 266-160 477-507 477H370V0H180zm190-706h312c236 0 327-133 327-310 0-176-91-307-329-307H370v617" id="v"/><path d="M784 20c-382 0-662-292-662-764 0-473 280-766 662-766s660 293 660 766c0 472-278 764-660 764zm0-176c266 0 475-207 475-588 0-383-209-590-475-590-268 0-477 208-477 590 0 380 209 588 477 588" id="w"/><g id="b"><use transform="matrix(0.010850694444444444,0,0,0.010850694444444444,0,0)" xlink:href="#q"/><use transform="matrix(0.010850694444444444,0,0,0.010850694444444444,14.344618055555555,0)" xlink:href="#u"/><use transform="matrix(0.010850694444444444,0,0,0.010850694444444444,20.3125,0)" xlink:href="#v"/><use transform="matrix(0.010850694444444444,0,0,0.010850694444444444,34.50520833333333,0)" xlink:href="#w"/><use transform="matrix(0.010850694444444444,0,0,0.010850694444444444,51.49739583333333,0)" xlink:href="#t"/></g><path d="M645 0H180v-1490h484c435 0 692 280 692 742 0 466-257 748-711 748zM370-168h263c363 0 539-218 539-580 0-358-176-574-521-574H370v1154" id="x"/><g id="c"><use transform="matrix(0.010850694444444444,0,0,0.010850694444444444,0,0)" xlink:href="#x"/><use transform="matrix(0.010850694444444444,0,0,0.010850694444444444,16.03732638888889,0)" xlink:href="#s"/></g><path d="M783 20c-382 0-661-292-661-764 0-473 279-766 661-766 302 0 548 182 601 489h-190c-42-204-217-313-411-313-268 0-476 208-476 590 0 381 209 588 476 588 195 0 369-110 411-313h190c-52 303-296 489-601 489" id="y"/><g id="d"><use transform="matrix(0.010850694444444444,0,0,0.010850694444444444,0,0)" xlink:href="#r"/><use transform="matrix(0.010850694444444444,0,0,0.010850694444444444,14.301215277777777,0)" xlink:href="#s"/><use transform="matrix(0.010850694444444444,0,0,0.010850694444444444,27.65842013888889,0)" xlink:href="#y"/><use transform="matrix(0.010850694444444444,0,0,0.010850694444444444,43.89105902777777,0)" xlink:href="#w"/><use transform="matrix(0.010850694444444444,0,0,0.010850694444444444,60.88324652777778,0)" xlink:href="#r"/><use transform="matrix(0.010850694444444444,0,0,0.010850694444444444,75.18446180555554,0)" xlink:href="#r"/><use transform="matrix(0.010850694444444444,0,0,0.010850694444444444,89.48567708333331,0)" xlink:href="#u"/><use transform="matrix(0.010850694444444444,0,0,0.010850694444444444,95.45355902777776,0)" xlink:href="#x"/><use transform="matrix(0.010850694444444444,0,0,0.010850694444444444,111.49088541666664,0)" xlink:href="#w"/><use transform="matrix(0.010850694444444444,0,0,0.010850694444444444,128.48307291666663,0)" xlink:href="#t"/></g><path d="M180 0v-1490h528c311 0 458 177 458 395 0 191-114 278-244 313v14c139 9 302 137 302 371 0 225-148 397-499 397H180zm190-168h350c232 0 321-102 321-231 0-149-120-277-311-277H370v508zm0-668h328c160 0 286-101 286-255 0-129-87-231-280-231H370v486" id="z"/><path d="M180 0v-1490h190v1322h690V0H180" id="A"/><g id="e"><use transform="matrix(0.010850694444444444,0,0,0.010850694444444444,0,0)" xlink:href="#v"/><use transform="matrix(0.010850694444444444,0,0,0.010850694444444444,14.192708333333332,0)" xlink:href="#w"/><use transform="matrix(0.010850694444444444,0,0,0.010850694444444444,31.184895833333332,0)" xlink:href="#t"/><use transform="matrix(0.010850694444444444,0,0,0.010850694444444444,45.44270833333333,0)" xlink:href="#u"/><use transform="matrix(0.010850694444444444,0,0,0.010850694444444444,51.41059027777778,0)" xlink:href="#z"/><use transform="matrix(0.010850694444444444,0,0,0.010850694444444444,65.95052083333333,0)" xlink:href="#A"/><use transform="matrix(0.010850694444444444,0,0,0.010850694444444444,78.515625,0)" xlink:href="#s"/><use transform="matrix(0.010850694444444444,0,0,0.010850694444444444,91.87282986111111,0)" xlink:href="#t"/></g><path d="M180 0v-1490h224l606 953c40 63 108 177 176 312-27-437-7-821-13-1265h190V0h-226C860-448 622-778 356-1262c27 476 11 792 15 1262H180" id="B"/><g id="g"><use transform="matrix(0.010850694444444444,0,0,0.010850694444444444,0,0)" xlink:href="#u"/><use transform="matrix(0.010850694444444444,0,0,0.010850694444444444,5.967881944444445,0)" xlink:href="#B"/></g><g id="h"><use transform="matrix(0.010850694444444444,0,0,0.010850694444444444,0,0)" xlink:href="#w"/><use transform="matrix(0.010850694444444444,0,0,0.010850694444444444,16.9921875,0)" xlink:href="#r"/><use transform="matrix(0.010850694444444444,0,0,0.010850694444444444,31.293402777777775,0)" xlink:href="#x"/><use transform="matrix(0.010850694444444444,0,0,0.010850694444444444,47.33072916666667,0)" xlink:href="#s"/><use transform="matrix(0.010850694444444444,0,0,0.010850694444444444,60.687934027777786,0)" xlink:href="#r"/></g><g id="i"><use transform="matrix(0.010850694444444444,0,0,0.010850694444444444,0,0)" xlink:href="#v"/><use transform="matrix(0.010850694444444444,0,0,0.010850694444444444,14.192708333333332,0)" xlink:href="#r"/><use transform="matrix(0.010850694444444444,0,0,0.010850694444444444,28.493923611111104,0)" xlink:href="#s"/><use transform="matrix(0.010850694444444444,0,0,0.010850694444444444,41.851128472222214,0)" xlink:href="#w"/><use transform="matrix(0.010850694444444444,0,0,0.010850694444444444,58.84331597222221,0)" xlink:href="#r"/><use transform="matrix(0.010850694444444444,0,0,0.010850694444444444,73.14453124999999,0)" xlink:href="#x"/><use transform="matrix(0.010850694444444444,0,0,0.010850694444444444,89.18185763888887,0)" xlink:href="#s"/><use transform="matrix(0.010850694444444444,0,0,0.010850694444444444,102.53906249999997,0)" xlink:href="#r"/></g><g id="j"><use transform="matrix(0.010850694444444444,0,0,0.010850694444444444,0,0)" xlink:href="#v"/><use transform="matrix(0.010850694444444444,0,0,0.010850694444444444,14.192708333333332,0)" xlink:href="#w"/><use transform="matrix(0.010850694444444444,0,0,0.010850694444444444,31.184895833333332,0)" xlink:href="#t"/><use transform="matrix(0.010850694444444444,0,0,0.010850694444444444,45.44270833333333,0)" xlink:href="#q"/></g><path d="M653-1490V0H466v-1314h-10L96-1047v-204l324-239h233" id="C"/><path d="M646 20c-332 0-524-278-524-764 0-483 194-766 524-766s524 283 524 766c0 485-191 764-524 764zm0-166c218 0 341-220 341-598 0-380-123-601-341-601s-341 222-341 601c0 378 123 598 341 598" id="D"/><g id="k"><use transform="matrix(0.010850694444444444,0,0,0.010850694444444444,0,0)" xlink:href="#C"/><use transform="matrix(0.010850694444444444,0,0,0.010850694444444444,9.038628472222221,0)" xlink:href="#D"/></g><path d="M633 20c-303 0-511-173-511-416 0-188 124-348 291-378v-8c-145-37-237-174-237-332 0-227 192-396 457-396 261 0 456 169 456 396 0 158-94 295-235 332v8c162 30 291 190 291 378 0 243-212 416-512 416zm0-165c197 0 322-103 322-261 0-165-138-283-322-283-188 0-324 118-324 283 0 158 123 261 324 261zm0-703c157 0 272-101 272-252 0-149-110-246-272-246-165 0-273 97-273 246 0 151 112 252 273 252" id="E"/><use transform="matrix(0.010850694444444444,0,0,0.010850694444444444,0,0)" xlink:href="#E" id="l"/><path d="M154 0v-137l495-537c165-179 249-281 249-418 0-156-121-253-280-253-170 0-278 110-278 278H158c0-264 200-443 465-443 266 0 455 183 455 416 0 161-73 288-336 568L416-179v12h687V0H154" id="F"/><use transform="matrix(0.010850694444444444,0,0,0.010850694444444444,0,0)" xlink:href="#F" id="m"/><path d="M603 20c-253 0-434-161-469-399h188c31 132 124 231 281 231 227 0 367-207 367-568h-12c-80 122-211 199-367 199-257 0-469-206-469-493 0-278 200-505 506-500 245 4 520 158 520 706 0 527-208 824-545 824zm16-703c181 0 324-157 324-332 0-171-135-328-318-328-180 0-317 148-317 332 0 183 131 328 311 328" id="G"/><use transform="matrix(0.010850694444444444,0,0,0.010850694444444444,0,0)" xlink:href="#G" id="n"/><g id="o"><use transform="matrix(0.010850694444444444,0,0,0.010850694444444444,0,0)" xlink:href="#F"/><use transform="matrix(0.010850694444444444,0,0,0.010850694444444444,13.55251736111111,0)" xlink:href="#D"/></g><path d="M200 0l662-1311v-12H98v-167h963v177L400 0H200" id="H"/><g id="p"><use transform="matrix(0.010850694444444444,0,0,0.010850694444444444,0,0)" xlink:href="#C"/><use transform="matrix(0.010850694444444444,0,0,0.010850694444444444,9.038628472222221,0)" xlink:href="#H"/></g></defs></g></svg>